<svg width="578" height="615" viewBox="0 0 578 615" fill="none" xmlns="http://www.w3.org/2000/svg">
<g id="undraw_businessman_re_mlee 1" clip-path="url(#clip0_1_2)">
<path id="vectors" d="M270.981 351.865C230.568 351.865 184.124 307.018 143.032 328.326C18.617 392.84 35.7434 284.886 -3.05176e-05 244.737L1.17343 242.383C40.6122 277.747 89.8528 306.519 143.572 325.588C192.118 342.823 241.027 350.808 284.996 348.701L285.072 351.53C280.428 351.754 275.732 351.866 270.981 351.865Z" fill="#F2F2F2"/>
<path id="Vector_2" d="M565.978 91.2107C533.762 115.61 469.662 107.902 449.77 149.698C389.542 276.243 338.016 179.846 285.282 169.421L284.797 166.836C337.587 171.215 394.211 164.421 448.548 147.189C497.652 131.618 541.462 108.453 575.24 80.2271L577.009 82.4363C573.442 85.4184 569.765 88.3432 565.978 91.2107Z" fill="#F2F2F2"/>
<path id="Vector_3" d="M89.5449 163.655C94.2103 163.655 97.9923 158.583 97.9923 152.327C97.9923 146.071 94.2103 141 89.5449 141C84.8796 141 81.0975 146.071 81.0975 152.327C81.0975 158.583 84.8796 163.655 89.5449 163.655Z" fill="#E6E6E6"/>
<path id="Vector_4" d="M444.545 269.655C449.21 269.655 452.992 264.583 452.992 258.327C452.992 252.071 449.21 247 444.545 247C439.88 247 436.098 252.071 436.098 258.327C436.098 264.583 439.88 269.655 444.545 269.655Z" fill="#E6E6E6"/>
<path id="Vector_5" d="M212.545 22.6549C217.21 22.6549 220.992 17.5835 220.992 11.3275C220.992 5.07148 217.21 0 212.545 0C207.88 0 204.098 5.07148 204.098 11.3275C204.098 17.5835 207.88 22.6549 212.545 22.6549Z" fill="#E6E6E6"/>
<path id="Vector_6" d="M363.989 418.131L354.166 359.056C353.968 357.86 354.253 356.634 354.958 355.648C355.663 354.662 356.73 353.996 357.926 353.796L402.541 346.377C403.737 346.179 404.962 346.464 405.948 347.169C406.934 347.874 407.6 348.941 407.801 350.137L417.624 409.212C417.822 410.408 417.537 411.634 416.832 412.62C416.127 413.606 415.06 414.272 413.864 414.472L369.249 421.891C368.053 422.089 366.828 421.804 365.842 421.099C364.855 420.394 364.189 419.327 363.989 418.131V418.131Z" fill="#3F3D56"/>
<path id="Vector_7" d="M364.444 399.719L358.129 361.74C357.944 360.62 358.211 359.472 358.871 358.548C359.531 357.625 360.53 357.001 361.65 356.814L399.993 350.438C401.113 350.253 402.261 350.52 403.184 351.18C404.108 351.84 404.732 352.839 404.919 353.959L413.661 406.528C413.846 407.648 413.579 408.796 412.919 409.719C412.259 410.643 411.259 411.267 410.139 411.454L386.387 415.404C381.398 416.228 376.286 415.039 372.172 412.099C368.059 409.158 365.279 404.706 364.444 399.719V399.719Z" fill="white"/>
<path id="Vector_8" d="M366.099 371.304C365.918 370.21 366.179 369.088 366.824 368.186C367.469 367.283 368.446 366.674 369.54 366.49L396.139 362.067C396.681 361.977 397.235 361.995 397.77 362.119C398.305 362.243 398.811 362.472 399.258 362.791C399.705 363.111 400.085 363.515 400.375 363.981C400.666 364.448 400.862 364.967 400.952 365.509C401.042 366.051 401.025 366.605 400.901 367.14C400.777 367.675 400.548 368.181 400.229 368.628C399.909 369.075 399.505 369.455 399.038 369.745C398.572 370.036 398.053 370.232 397.511 370.322L370.913 374.745C369.818 374.926 368.697 374.665 367.794 374.02C366.892 373.375 366.282 372.398 366.099 371.304Z" fill="#6C63FF"/>
<path id="Vector_9" d="M368.234 384.145C368.054 383.05 368.314 381.929 368.959 381.026C369.604 380.124 370.581 379.514 371.675 379.331L398.274 374.908C398.816 374.818 399.37 374.836 399.905 374.96C400.441 375.084 400.946 375.312 401.393 375.632C401.84 375.951 402.22 376.356 402.511 376.822C402.801 377.288 402.997 377.807 403.087 378.349C403.178 378.891 403.16 379.446 403.036 379.981C402.912 380.516 402.683 381.022 402.364 381.469C402.044 381.916 401.64 382.295 401.174 382.586C400.707 382.877 400.188 383.073 399.646 383.163L373.048 387.586C371.953 387.767 370.832 387.506 369.93 386.861C369.027 386.216 368.417 385.239 368.234 384.145V384.145Z" fill="#6C63FF"/>
<path id="Vector_10" d="M370.37 396.985C370.189 395.891 370.45 394.769 371.095 393.867C371.74 392.965 372.717 392.355 373.811 392.172L400.409 387.749C401.504 387.567 402.626 387.827 403.529 388.472C404.431 389.118 405.041 390.095 405.223 391.19C405.405 392.284 405.144 393.407 404.499 394.309C403.854 395.212 402.876 395.821 401.782 396.003L375.183 400.426C374.089 400.607 372.967 400.346 372.065 399.701C371.162 399.056 370.553 398.08 370.37 396.985Z" fill="#6C63FF"/>
<path id="Vector_11" d="M343.845 362.451C342.682 361.143 341.821 359.596 341.322 357.92C340.822 356.243 340.696 354.477 340.953 352.747C341.209 351.016 341.842 349.363 342.807 347.904C343.771 346.444 345.044 345.214 346.536 344.3L330.974 270.199L351.6 278.129L363.541 348.922C364.911 351.529 365.277 354.548 364.569 357.408C363.861 360.267 362.13 362.767 359.702 364.435C357.274 366.102 354.319 366.821 351.396 366.456C348.474 366.09 345.787 364.665 343.845 362.451V362.451Z" fill="#FFB8B8"/>
<path id="Vector_12" d="M336.978 596.816L353.955 596.815L362.032 531.329L336.975 531.33L336.978 596.816Z" fill="#FFB6B6"/>
<path id="Vector_13" d="M332.647 591.272L337.426 591.272L356.083 583.685L366.082 591.271H366.084C371.735 591.271 377.154 593.516 381.15 597.512C385.146 601.508 387.391 606.927 387.391 612.578V613.271L332.648 613.273L332.647 591.272Z" fill="#2F2E41"/>
<path id="Vector_14" d="M183.573 574.742L198.768 582.315L235.209 527.31L212.783 516.133L183.573 574.742Z" fill="#FFB6B6"/>
<path id="Vector_15" d="M182.17 567.849L186.447 569.981L206.529 571.513L212.094 582.764L212.096 582.764C217.153 585.285 221.002 589.712 222.796 595.071C224.589 600.43 224.181 606.281 221.66 611.339L221.352 611.959L172.356 587.54L182.17 567.849Z" fill="#2F2E41"/>
<path id="Vector_16" d="M344.5 299.403L236.551 302.219L238.428 354.786C238.428 354.786 236.551 368.866 240.305 372.621C244.06 376.375 245.938 376.375 244.06 382.946C242.183 389.517 237.329 452.299 237.329 452.299C237.329 452.299 193.024 530.639 194.901 532.516C196.779 534.393 198.656 532.516 196.779 537.209C194.901 541.903 193.024 540.025 194.901 541.903C196.564 543.696 198.131 545.576 199.595 547.535H230.193C230.193 547.535 231.904 538.148 231.904 537.209C231.904 536.271 233.781 530.639 233.781 529.7C233.781 528.761 287.24 472.122 287.24 472.122L298.504 378.253L325.726 470.244C325.726 470.244 325.726 550.971 327.603 552.849C329.481 554.726 329.481 553.787 328.542 557.542C327.603 561.297 323.849 560.358 326.665 563.174C329.481 565.99 330.419 561.297 329.481 565.99L328.542 570.684L364.606 571.087C364.606 571.087 368.36 563.174 366.483 560.358C364.606 557.542 364.718 558.311 367.009 553.702C369.299 549.094 370.238 548.155 369.299 547.217C368.36 546.278 368.36 541.285 368.36 541.285C368.36 541.285 354.825 356.663 354.825 353.847C354.755 352.398 355.022 350.952 355.605 349.624V345.802L352.009 332.257L344.5 299.403Z" fill="#2F2E41"/>
<path id="Vector_17" d="M441.811 561.537L442.742 540.593C452.452 535.403 463.282 532.662 474.292 532.607C459.139 544.995 461.033 568.876 450.759 585.536C447.515 590.707 443.149 595.082 437.985 598.337C432.82 601.592 426.989 603.643 420.924 604.337L408.244 612.101C406.504 602.401 406.887 592.439 409.368 582.902C411.849 573.364 416.368 564.478 422.614 556.855C426.16 552.613 430.226 548.835 434.716 545.61C437.753 553.618 441.811 561.537 441.811 561.537Z" fill="#F2F2F2"/>
<path id="Vector_18" d="M288.604 115.052L342.675 224.404L332.096 357.116L263.002 350.803L250.612 131.022L288.604 115.052Z" fill="#2F2E41"/>
<path id="Vector_19" d="M364.529 342.465L332.934 339.577L332.885 339.176L311.682 163.616L316.427 150.461C317.562 147.337 319.486 144.561 322.012 142.401C324.538 140.241 327.579 138.771 330.841 138.134V138.133C333.326 137.655 335.881 137.673 338.359 138.186C340.836 138.699 343.188 139.697 345.279 141.124C347.369 142.55 349.157 144.375 350.538 146.495C351.92 148.615 352.868 150.988 353.329 153.476L359.003 184.125L367.053 287.728L364.529 342.465Z" fill="#2F2E41"/>
<path id="Vector_20" d="M282.267 131.269L288.639 116.023L308.361 116.369L328.926 145.459L350.511 236.232C350.511 236.232 358.263 302.541 350.511 306.042C342.758 309.542 316.482 305.22 316.482 305.22L282.267 131.269Z" fill="#6C63FF"/>
<path id="Vector_21" d="M308.361 116.369C308.361 116.369 350.844 140.927 352.506 153.746C354.168 166.565 359.731 323.465 359.731 323.465L344.708 313.757L340.602 256.573L322.267 139.494L308.361 116.369Z" fill="#2F2E41"/>
<path id="Vector_22" d="M298.333 109.226C314.323 109.226 327.286 96.2634 327.286 80.2728C327.286 64.2821 314.323 51.3191 298.333 51.3191C282.342 51.3191 269.379 64.2821 269.379 80.2728C269.379 96.2634 282.342 109.226 298.333 109.226Z" fill="#FFB8B8"/>
<path id="Vector_23" d="M265.491 61.2483C268.742 56.2185 274.843 52.8663 280.758 53.8083C281.308 50.0337 282.884 46.4825 285.313 43.5414C287.742 40.6002 290.931 38.3819 294.534 37.1278C298.136 35.8738 302.014 35.6321 305.744 36.4292C309.474 37.2262 312.914 39.0314 315.69 41.6482C316.602 41.0056 317.665 40.6095 318.776 40.4984C319.887 40.3872 321.007 40.5647 322.029 41.0137C324.065 41.9393 325.836 43.3608 327.18 45.148C330.574 49.3804 332.757 54.4538 333.496 59.8282C334.235 65.2026 333.503 70.6769 331.378 75.6683C332.101 73.0406 329.467 70.5684 326.806 69.9788C324.146 69.3891 321.355 69.947 318.657 69.563C315.198 69.0709 312.09 67.0647 308.626 66.6132C305.715 66.2338 302.788 66.9801 299.949 67.7282C297.11 68.4762 294.191 69.2391 291.275 68.893C288.36 68.5468 284.605 79.5946 284.655 87.376C284.665 88.8506 284.361 90.7439 282.92 91.0567C281.145 91.4421 280.117 88.9927 278.428 88.3252C277.649 88.1021 276.815 88.1899 276.1 88.5702C275.385 88.9504 274.845 89.5934 274.595 90.3636C274.382 91.1466 274.359 91.9691 274.528 92.7627C274.698 93.5563 275.054 94.298 275.568 94.9261C276.606 96.1712 277.839 97.2405 279.218 98.0926L278.522 98.6712C277.365 100.2 274.964 100.266 273.296 99.3204C271.701 98.2401 270.41 96.7694 269.545 95.0484C266.459 89.9158 263.752 84.447 262.663 78.558C261.574 72.6689 262.24 66.278 265.491 61.2483Z" fill="#2F2E41"/>
<path id="Vector_24" d="M202.426 275.677L260.271 213.617C261.443 212.362 263.065 211.624 264.781 211.563C266.497 211.503 268.167 212.126 269.425 213.295L316.294 256.981C317.548 258.154 318.287 259.776 318.347 261.492C318.408 263.208 317.785 264.878 316.615 266.135L258.77 328.195C257.598 329.45 255.976 330.188 254.26 330.249C252.544 330.309 250.874 329.686 249.616 328.517L202.747 284.831C201.493 283.659 200.754 282.037 200.694 280.32C200.633 278.604 201.256 276.934 202.426 275.677Z" fill="#E6E6E6"/>
<path id="Vector_25" d="M223.492 260.283L260.681 220.386C261.779 219.21 263.298 218.519 264.905 218.462C266.512 218.406 268.076 218.989 269.253 220.084L309.534 257.629C310.709 258.727 311.4 260.246 311.457 261.853C311.513 263.46 310.93 265.024 309.835 266.202L258.361 321.427C257.263 322.602 255.743 323.293 254.136 323.35C252.529 323.406 250.965 322.823 249.788 321.728L224.835 298.47C219.6 293.58 216.519 286.813 216.268 279.654C216.016 272.495 218.614 265.529 223.492 260.283V260.283Z" fill="white"/>
<path id="Vector_26" d="M256.826 237.597C257.899 236.448 259.384 235.772 260.954 235.717C262.525 235.662 264.053 236.232 265.204 237.302L293.146 263.347C294.296 264.419 294.973 265.903 295.028 267.475C295.083 269.046 294.512 270.574 293.44 271.724C292.368 272.874 290.884 273.551 289.313 273.606C287.742 273.662 286.213 273.09 285.063 272.019L257.121 245.974C255.972 244.901 255.297 243.417 255.241 241.846C255.186 240.276 255.756 238.747 256.826 237.597V237.597Z" fill="#E6E6E6"/>
<path id="Vector_27" d="M244.253 251.086C245.326 249.938 246.81 249.262 248.381 249.207C249.951 249.151 251.48 249.721 252.63 250.792L280.573 276.836C281.142 277.367 281.601 278.005 281.924 278.713C282.247 279.421 282.427 280.186 282.455 280.964C282.482 281.742 282.356 282.517 282.083 283.247C281.811 283.976 281.398 284.644 280.867 285.213C280.336 285.783 279.699 286.242 278.99 286.565C278.282 286.888 277.517 287.068 276.739 287.096C275.961 287.123 275.186 286.997 274.457 286.724C273.727 286.452 273.059 286.039 272.49 285.508L244.548 259.463C243.399 258.391 242.723 256.906 242.668 255.336C242.613 253.765 243.183 252.237 244.253 251.086V251.086Z" fill="#E6E6E6"/>
<path id="Vector_28" d="M231.68 264.575C232.753 263.427 234.237 262.751 235.808 262.696C237.378 262.641 238.906 263.211 240.057 264.281L267.999 290.325C269.149 291.397 269.826 292.882 269.882 294.453C269.937 296.024 269.366 297.553 268.294 298.703C267.222 299.853 265.737 300.53 264.166 300.585C262.595 300.64 261.067 300.069 259.917 298.997L231.974 272.953C230.826 271.88 230.15 270.395 230.095 268.825C230.04 267.254 230.61 265.726 231.68 264.575V264.575Z" fill="#E6E6E6"/>
<path id="Vector_29" d="M299.666 338.546L279.668 367.182L278.736 368.304C277.116 370.252 274.879 371.588 272.395 372.09C272.043 372.16 271.69 372.213 271.335 372.248C270.897 372.293 270.457 372.311 270.017 372.302C269.765 372.298 269.513 372.284 269.262 372.262C267.803 372.136 266.384 371.723 265.085 371.045L256.553 365.086C255.874 364.612 255.389 363.909 255.189 363.105C255.09 362.707 255.061 362.296 255.105 361.888C255.168 361.318 255.374 360.772 255.703 360.301L280.329 325.041C280.851 324.294 281.649 323.786 282.546 323.626C283.443 323.467 284.367 323.67 285.115 324.191L298.817 333.76C298.85 333.783 298.881 333.806 298.913 333.829C298.933 333.844 298.954 333.86 298.973 333.877C299.001 333.897 299.027 333.919 299.053 333.941C299.086 333.968 299.119 333.995 299.15 334.024C299.179 334.05 299.207 334.077 299.236 334.104L299.252 334.12C299.288 334.155 299.324 334.19 299.357 334.226C299.391 334.262 299.425 334.3 299.457 334.337C299.48 334.364 299.503 334.392 299.526 334.419L299.528 334.422C299.594 334.504 299.657 334.59 299.715 334.679C299.733 334.706 299.751 334.734 299.768 334.762L299.776 334.774C299.79 334.797 299.803 334.819 299.816 334.842C299.856 334.909 299.893 334.979 299.928 335.05C299.986 335.167 300.037 335.287 300.081 335.41C300.096 335.449 300.109 335.489 300.121 335.529C300.132 335.561 300.142 335.594 300.15 335.628L300.153 335.635L300.157 335.648C300.165 335.677 300.173 335.706 300.18 335.734C300.194 335.789 300.207 335.845 300.218 335.901C300.221 335.916 300.225 335.931 300.227 335.947C300.231 335.963 300.233 335.978 300.236 335.994C300.239 336.009 300.241 336.024 300.244 336.039L300.248 336.064C300.255 336.109 300.26 336.155 300.265 336.2C300.272 336.257 300.277 336.314 300.279 336.371C300.283 336.418 300.285 336.464 300.285 336.511C300.286 336.554 300.286 336.596 300.286 336.638C300.286 336.649 300.285 336.66 300.284 336.67C300.284 336.714 300.282 336.757 300.279 336.801C300.273 336.91 300.26 337.019 300.243 337.126C300.236 337.166 300.229 337.206 300.221 337.245C300.212 337.293 300.201 337.341 300.19 337.387C300.186 337.405 300.181 337.423 300.177 337.44C300.17 337.467 300.163 337.493 300.155 337.519C300.147 337.547 300.138 337.577 300.13 337.605L300.108 337.673C300.094 337.714 300.079 337.753 300.064 337.793C300.055 337.817 300.046 337.84 300.036 337.864C299.967 338.035 299.885 338.2 299.789 338.358C299.777 338.377 299.766 338.396 299.753 338.415C299.726 338.459 299.697 338.502 299.666 338.546Z" fill="white"/>
<path id="Vector_30" d="M286.123 339.633C287.744 339.633 289.059 338.319 289.059 336.698C289.059 335.076 287.744 333.762 286.123 333.762C284.502 333.762 283.187 335.076 283.187 336.698C283.187 338.319 284.502 339.633 286.123 339.633Z" fill="#6C63FF"/>
<path id="Vector_31" d="M252.96 367.719C251.798 366.412 250.937 364.865 250.437 363.188C249.937 361.512 249.811 359.746 250.068 358.016C250.324 356.285 250.957 354.632 251.922 353.172C252.887 351.713 254.16 350.483 255.651 349.568L240.089 275.468L260.715 283.398L272.656 354.19C274.026 356.798 274.392 359.817 273.684 362.676C272.977 365.535 271.245 368.036 268.817 369.703C266.389 371.371 263.434 372.09 260.511 371.724C257.589 371.359 254.902 369.934 252.96 367.719V367.719Z" fill="#FFB8B8"/>
<path id="Vector_32" d="M241.532 337.65L233.138 283.564L229.983 179.688L232.328 148.553C232.518 146.03 233.205 143.569 234.351 141.313C235.496 139.056 237.077 137.049 239.002 135.406C240.926 133.763 243.157 132.518 245.565 131.741C247.974 130.964 250.512 130.671 253.034 130.88C256.345 131.162 259.527 132.296 262.271 134.172C265.014 136.047 267.226 138.6 268.691 141.584L274.824 154.152L272.634 331.378L241.532 337.65Z" fill="#2F2E41"/>
<path id="Vector_33" d="M505.569 613.097C505.57 613.302 505.53 613.504 505.452 613.693C505.375 613.881 505.26 614.053 505.116 614.197C504.971 614.342 504.8 614.456 504.611 614.534C504.423 614.612 504.22 614.651 504.016 614.651H85.966C85.554 614.651 85.159 614.487 84.8677 614.196C84.5764 613.904 84.4128 613.509 84.4128 613.097C84.4128 612.685 84.5764 612.29 84.8677 611.999C85.159 611.708 85.554 611.544 85.966 611.544H504.016C504.22 611.544 504.423 611.583 504.611 611.661C504.8 611.739 504.971 611.853 505.116 611.998C505.26 612.142 505.375 612.314 505.452 612.502C505.53 612.691 505.57 612.893 505.569 613.097V613.097Z" fill="#CCCCCC"/>
<path id="Vector_34" d="M275.66 92.0086C275.678 91.6807 275.777 91.3624 275.947 91.0817C276.117 90.801 276.354 90.5665 276.637 90.3991C276.919 90.2316 277.239 90.1362 277.567 90.1214C277.895 90.1066 278.221 90.1728 278.518 90.3141C278.814 90.4555 279.071 90.6676 279.266 90.9318C279.461 91.1961 279.588 91.5042 279.636 91.8291C279.683 92.154 279.65 92.4856 279.539 92.7947C279.428 93.1038 279.243 93.3808 279 93.6013L282.361 99.1252C282.499 99.3518 282.541 99.6239 282.479 99.8816C282.416 100.139 282.253 100.361 282.027 100.499C281.8 100.637 281.528 100.679 281.271 100.617C281.013 100.554 280.791 100.392 280.653 100.165L276.873 93.954C276.496 93.7939 276.176 93.5212 275.959 93.1731C275.742 92.8249 275.638 92.4183 275.66 92.0086V92.0086Z" fill="white"/>
<path id="Vector_35" d="M278.019 95.7638C278.143 96.0104 278.444 96.1095 278.69 95.9851C278.937 95.8608 279.036 95.5601 278.912 95.3135L278.011 93.5278C277.887 93.2812 277.586 93.1821 277.339 93.3065C277.093 93.4308 276.994 93.7315 277.118 93.9781L278.019 95.7638Z" fill="#2F2E41"/>
</g>
<defs>
<clipPath id="clip0_1_2">
<rect width="577.009" height="614.651" fill="white"/>
</clipPath>
</defs>
</svg>
