<svg width="199" height="47" viewBox="0 0 199 47" fill="none" xmlns="http://www.w3.org/2000/svg">
<g id="Frame">
<g id="Rectangle" filter="url(#filter0_d_1:1043)">
<path d="M0 9C0 4.02944 4.02944 0 9 0H190C194.971 0 199 4.02944 199 9V38C199 42.9706 194.971 47 190 47H9C4.02944 47 0 42.9706 0 38V9Z" fill="white"/>
</g>
<path id="Firefox Extension" d="M55.1611 23.7705H50.0986V29H47.4619V16.2031H55.7939V18.3389H50.0986V21.6436H55.1611V23.7705ZM59.8369 29H57.2881V19.4902H59.8369V29ZM57.1387 17.0293C57.1387 16.6484 57.2646 16.335 57.5166 16.0889C57.7744 15.8428 58.123 15.7197 58.5625 15.7197C58.9961 15.7197 59.3418 15.8428 59.5996 16.0889C59.8574 16.335 59.9863 16.6484 59.9863 17.0293C59.9863 17.416 59.8545 17.7324 59.5908 17.9785C59.333 18.2246 58.9902 18.3477 58.5625 18.3477C58.1348 18.3477 57.7891 18.2246 57.5254 17.9785C57.2676 17.7324 57.1387 17.416 57.1387 17.0293ZM67.2812 21.8721C66.9355 21.8252 66.6309 21.8018 66.3672 21.8018C65.4062 21.8018 64.7764 22.127 64.4775 22.7773V29H61.9375V19.4902H64.3369L64.4072 20.624C64.917 19.751 65.623 19.3145 66.5254 19.3145C66.8066 19.3145 67.0703 19.3525 67.3164 19.4287L67.2812 21.8721ZM72.7129 29.1758C71.3184 29.1758 70.1816 28.748 69.3027 27.8926C68.4297 27.0371 67.9932 25.8975 67.9932 24.4736V24.2275C67.9932 23.2725 68.1777 22.4199 68.5469 21.6699C68.916 20.9141 69.4375 20.334 70.1113 19.9297C70.791 19.5195 71.5645 19.3145 72.4316 19.3145C73.7324 19.3145 74.7549 19.7246 75.499 20.5449C76.249 21.3652 76.624 22.5283 76.624 24.0342V25.0713H70.5684C70.6504 25.6924 70.8965 26.1904 71.3066 26.5654C71.7227 26.9404 72.2471 27.1279 72.8799 27.1279C73.8584 27.1279 74.623 26.7734 75.1738 26.0645L76.4219 27.4619C76.041 28.001 75.5254 28.4229 74.875 28.7275C74.2246 29.0264 73.5039 29.1758 72.7129 29.1758ZM72.4229 21.3711C71.9189 21.3711 71.5088 21.541 71.1924 21.8809C70.8818 22.2207 70.6826 22.707 70.5947 23.3398H74.1279V23.1377C74.1162 22.5752 73.9639 22.1416 73.6709 21.8369C73.3779 21.5264 72.9619 21.3711 72.4229 21.3711ZM78.7686 29V21.3535H77.3535V19.4902H78.7686V18.6816C78.7686 17.6152 79.0732 16.7891 79.6826 16.2031C80.2979 15.6113 81.1562 15.3154 82.2578 15.3154C82.6094 15.3154 83.04 15.374 83.5498 15.4912L83.5234 17.46C83.3125 17.4072 83.0547 17.3809 82.75 17.3809C81.7949 17.3809 81.3174 17.8291 81.3174 18.7256V19.4902H83.207V21.3535H81.3174V29H78.7686ZM84.1299 24.1572C84.1299 23.2139 84.3115 22.373 84.6748 21.6348C85.0381 20.8965 85.5596 20.3252 86.2393 19.9209C86.9248 19.5166 87.7188 19.3145 88.6211 19.3145C89.9043 19.3145 90.9502 19.707 91.7588 20.4922C92.5732 21.2773 93.0273 22.3438 93.1211 23.6914L93.1387 24.3418C93.1387 25.8008 92.7314 26.9727 91.917 27.8574C91.1025 28.7363 90.0098 29.1758 88.6387 29.1758C87.2676 29.1758 86.1719 28.7363 85.3516 27.8574C84.5371 26.9785 84.1299 25.7832 84.1299 24.2715V24.1572ZM86.6699 24.3418C86.6699 25.2441 86.8398 25.9355 87.1797 26.416C87.5195 26.8906 88.0059 27.1279 88.6387 27.1279C89.2539 27.1279 89.7344 26.8936 90.0801 26.4248C90.4258 25.9502 90.5986 25.1943 90.5986 24.1572C90.5986 23.2725 90.4258 22.5869 90.0801 22.1006C89.7344 21.6143 89.248 21.3711 88.6211 21.3711C88 21.3711 87.5195 21.6143 87.1797 22.1006C86.8398 22.5811 86.6699 23.3281 86.6699 24.3418ZM98.1309 22.3291L99.7305 19.4902H102.446L99.7393 24.1484L102.561 29H99.8359L98.1396 26.0117L96.4521 29H93.7188L96.54 24.1484L93.8418 19.4902H96.5664L98.1309 22.3291ZM116.017 23.4541H110.954V26.8818H116.896V29H108.317V16.2031H116.878V18.3389H110.954V21.3887H116.017V23.4541ZM121.896 22.3291L123.496 19.4902H126.212L123.505 24.1484L126.326 29H123.602L121.905 26.0117L120.218 29H117.484L120.306 24.1484L117.607 19.4902H120.332L121.896 22.3291ZM130.475 17.1523V19.4902H132.101V21.3535H130.475V26.0996C130.475 26.4512 130.542 26.7031 130.677 26.8555C130.812 27.0078 131.069 27.084 131.45 27.084C131.731 27.084 131.98 27.0635 132.197 27.0225V28.9473C131.699 29.0996 131.187 29.1758 130.659 29.1758C128.878 29.1758 127.97 28.2764 127.935 26.4775V21.3535H126.546V19.4902H127.935V17.1523H130.475ZM137.893 29.1758C136.498 29.1758 135.361 28.748 134.482 27.8926C133.609 27.0371 133.173 25.8975 133.173 24.4736V24.2275C133.173 23.2725 133.357 22.4199 133.727 21.6699C134.096 20.9141 134.617 20.334 135.291 19.9297C135.971 19.5195 136.744 19.3145 137.611 19.3145C138.912 19.3145 139.935 19.7246 140.679 20.5449C141.429 21.3652 141.804 22.5283 141.804 24.0342V25.0713H135.748C135.83 25.6924 136.076 26.1904 136.486 26.5654C136.902 26.9404 137.427 27.1279 138.06 27.1279C139.038 27.1279 139.803 26.7734 140.354 26.0645L141.602 27.4619C141.221 28.001 140.705 28.4229 140.055 28.7275C139.404 29.0264 138.684 29.1758 137.893 29.1758ZM137.603 21.3711C137.099 21.3711 136.688 21.541 136.372 21.8809C136.062 22.2207 135.862 22.707 135.774 23.3398H139.308V23.1377C139.296 22.5752 139.144 22.1416 138.851 21.8369C138.558 21.5264 138.142 21.3711 137.603 21.3711ZM145.592 19.4902L145.671 20.5889C146.351 19.7393 147.262 19.3145 148.404 19.3145C149.412 19.3145 150.162 19.6104 150.654 20.2021C151.146 20.7939 151.398 21.6787 151.41 22.8564V29H148.87V22.918C148.87 22.3789 148.753 21.9893 148.519 21.749C148.284 21.5029 147.895 21.3799 147.35 21.3799C146.635 21.3799 146.099 21.6846 145.741 22.2939V29H143.201V19.4902H145.592ZM158.494 26.3721C158.494 26.0615 158.339 25.8184 158.028 25.6426C157.724 25.4609 157.231 25.2998 156.552 25.1592C154.29 24.6846 153.159 23.7236 153.159 22.2764C153.159 21.4326 153.508 20.7295 154.205 20.167C154.908 19.5986 155.825 19.3145 156.956 19.3145C158.163 19.3145 159.127 19.5986 159.848 20.167C160.574 20.7354 160.938 21.4736 160.938 22.3818H158.397C158.397 22.0186 158.28 21.7197 158.046 21.4854C157.812 21.2451 157.445 21.125 156.947 21.125C156.52 21.125 156.188 21.2217 155.954 21.415C155.72 21.6084 155.603 21.8545 155.603 22.1533C155.603 22.4346 155.734 22.6631 155.998 22.8389C156.268 23.0088 156.719 23.1582 157.352 23.2871C157.984 23.4102 158.518 23.5508 158.951 23.709C160.293 24.2012 160.964 25.0537 160.964 26.2666C160.964 27.1338 160.592 27.8369 159.848 28.376C159.104 28.9092 158.143 29.1758 156.965 29.1758C156.168 29.1758 155.459 29.0352 154.838 28.7539C154.223 28.4668 153.739 28.0771 153.388 27.585C153.036 27.0869 152.86 26.5508 152.86 25.9766H155.269C155.292 26.4277 155.459 26.7734 155.77 27.0137C156.08 27.2539 156.496 27.374 157.018 27.374C157.504 27.374 157.87 27.2832 158.116 27.1016C158.368 26.9141 158.494 26.6709 158.494 26.3721ZM165.288 29H162.739V19.4902H165.288V29ZM162.59 17.0293C162.59 16.6484 162.716 16.335 162.968 16.0889C163.226 15.8428 163.574 15.7197 164.014 15.7197C164.447 15.7197 164.793 15.8428 165.051 16.0889C165.309 16.335 165.438 16.6484 165.438 17.0293C165.438 17.416 165.306 17.7324 165.042 17.9785C164.784 18.2246 164.441 18.3477 164.014 18.3477C163.586 18.3477 163.24 18.2246 162.977 17.9785C162.719 17.7324 162.59 17.416 162.59 17.0293ZM166.993 24.1572C166.993 23.2139 167.175 22.373 167.538 21.6348C167.901 20.8965 168.423 20.3252 169.103 19.9209C169.788 19.5166 170.582 19.3145 171.484 19.3145C172.768 19.3145 173.813 19.707 174.622 20.4922C175.437 21.2773 175.891 22.3438 175.984 23.6914L176.002 24.3418C176.002 25.8008 175.595 26.9727 174.78 27.8574C173.966 28.7363 172.873 29.1758 171.502 29.1758C170.131 29.1758 169.035 28.7363 168.215 27.8574C167.4 26.9785 166.993 25.7832 166.993 24.2715V24.1572ZM169.533 24.3418C169.533 25.2441 169.703 25.9355 170.043 26.416C170.383 26.8906 170.869 27.1279 171.502 27.1279C172.117 27.1279 172.598 26.8936 172.943 26.4248C173.289 25.9502 173.462 25.1943 173.462 24.1572C173.462 23.2725 173.289 22.5869 172.943 22.1006C172.598 21.6143 172.111 21.3711 171.484 21.3711C170.863 21.3711 170.383 21.6143 170.043 22.1006C169.703 22.5811 169.533 23.3281 169.533 24.3418ZM179.904 19.4902L179.983 20.5889C180.663 19.7393 181.574 19.3145 182.717 19.3145C183.725 19.3145 184.475 19.6104 184.967 20.2021C185.459 20.7939 185.711 21.6787 185.723 22.8564V29H183.183V22.918C183.183 22.3789 183.065 21.9893 182.831 21.749C182.597 21.5029 182.207 21.3799 181.662 21.3799C180.947 21.3799 180.411 21.6846 180.054 22.2939V29H177.514V19.4902H179.904Z" fill="#12100C"/>
<g id="Frame_2">
<path id="vectors" d="M34.4395 18.7991C33.9502 17.6211 32.9583 16.3494 32.1797 15.9477C32.8134 17.1903 33.18 18.4367 33.3202 19.3667C33.3202 19.3667 33.3202 19.3733 33.3225 19.3855C32.0489 16.2102 29.8889 14.9295 28.125 12.1419C28.0355 12.0012 27.9464 11.8606 27.8592 11.7102C27.81 11.6253 27.7702 11.5484 27.7355 11.4758C27.6624 11.3348 27.6059 11.1859 27.5672 11.0319C27.5675 11.0246 27.5651 11.0174 27.5604 11.0118C27.5557 11.0061 27.5491 11.0024 27.5419 11.0014C27.535 10.9995 27.5277 10.9995 27.5208 11.0014C27.5189 11.0023 27.5172 11.0034 27.5156 11.0047C27.5128 11.0047 27.51 11.008 27.5072 11.0089L27.5119 11.0028C24.682 12.6603 23.722 15.7264 23.6339 17.2606C22.5031 17.338 21.4218 17.7543 20.5312 18.4555C20.4382 18.3768 20.3408 18.3032 20.2397 18.2352C19.983 17.3367 19.9722 16.3858 20.2083 15.4817C19.0509 16.0091 18.1509 16.8411 17.4966 17.5775H17.4914C17.0447 17.0117 17.0761 15.1456 17.1014 14.7561C17.0962 14.7317 16.7686 14.9262 16.7264 14.9558C16.3322 15.237 15.9637 15.5526 15.6253 15.8989C15.2402 16.2894 14.8883 16.7113 14.5734 17.1603C13.8489 18.1871 13.3351 19.3472 13.0617 20.5738C13.0566 20.5981 13.0519 20.6234 13.0467 20.6483C13.0256 20.7472 12.9492 21.2436 12.9356 21.3514V21.3763C12.836 21.8892 12.774 22.4087 12.75 22.9306V22.9883C12.75 29.2095 17.7937 34.2533 24.015 34.2533C29.587 34.2533 34.2131 30.208 35.1192 24.8942C35.138 24.7503 35.1534 24.605 35.1703 24.4597C35.3944 22.5275 35.1455 20.4969 34.4395 18.7991ZM21.4552 27.6172C21.5077 27.642 21.5573 27.6697 21.6112 27.6941L21.6187 27.6988C21.5648 27.6725 21.51 27.6453 21.4556 27.6172H21.4552ZM33.3234 19.3906V19.3798V19.392V19.3906Z" fill="url(#paint0_linear_1:1043)"/>
<path id="Vector_2" d="M34.4395 18.7992C33.9502 17.6212 32.9583 16.3495 32.1797 15.9478C32.8134 17.1904 33.18 18.4368 33.3202 19.3668V19.3898C34.3833 22.2717 33.8039 25.2023 32.9695 26.9929C31.6786 29.7632 28.5534 32.6029 23.6611 32.4646C18.3797 32.3146 13.7236 28.3907 12.8541 23.2556C12.6956 22.4451 12.8541 22.034 12.9337 21.3764C12.8367 21.8831 12.7997 22.0298 12.7514 22.9307V22.9884C12.7514 29.2096 17.7952 34.2534 24.0164 34.2534C29.5884 34.2534 34.2145 30.2081 35.1206 24.8943C35.1394 24.7504 35.1548 24.6051 35.1717 24.4598C35.3944 22.5276 35.1455 20.497 34.4395 18.7992Z" fill="url(#paint1_radial_1:1043)"/>
<path id="Vector_3" d="M34.4395 18.7992C33.9502 17.6212 32.9583 16.3495 32.1797 15.9478C32.8134 17.1904 33.18 18.4368 33.3202 19.3668V19.3898C34.3833 22.2717 33.8039 25.2023 32.9695 26.9929C31.6786 29.7632 28.5534 32.6029 23.6611 32.4646C18.3797 32.3146 13.7236 28.3907 12.8541 23.2556C12.6956 22.4451 12.8541 22.034 12.9337 21.3764C12.8367 21.8831 12.7997 22.0298 12.7514 22.9307V22.9884C12.7514 29.2096 17.7952 34.2534 24.0164 34.2534C29.5884 34.2534 34.2145 30.2081 35.1206 24.8943C35.1394 24.7504 35.1548 24.6051 35.1717 24.4598C35.3944 22.5276 35.1455 20.497 34.4395 18.7992Z" fill="url(#paint2_radial_1:1043)"/>
<path id="Vector_4" d="M28.965 20.1229C28.9898 20.1403 29.0119 20.1576 29.0353 20.175C28.7526 19.673 28.4003 19.2134 27.989 18.81C24.4875 15.3084 27.0712 11.2171 27.5067 11.009L27.5114 11.0029C24.6815 12.6604 23.7215 15.7265 23.6334 17.2607C23.7647 17.2518 23.8955 17.2406 24.029 17.2406C26.1408 17.2406 27.9801 18.4022 28.965 20.1229Z" fill="url(#paint3_radial_1:1043)"/>
<path id="Vector_5" d="M24.0361 20.8221C24.0178 21.1034 23.0278 22.069 22.6814 22.069C19.478 22.069 18.9581 24.0068 18.9581 24.0068C19.0988 25.639 20.2359 26.9829 21.6117 27.694C21.6745 27.7264 21.7378 27.7554 21.7992 27.7845C21.9094 27.8314 22.02 27.8782 22.1302 27.9199C22.602 28.0864 23.096 28.1812 23.5959 28.2012C29.2106 28.4646 30.2991 21.4878 26.2467 19.4618C27.2841 19.2814 28.3613 19.699 28.9627 20.1214C27.9783 18.4006 26.1384 17.239 24.0267 17.239C23.8931 17.239 23.7623 17.2503 23.6311 17.2592C22.5011 17.3375 21.4209 17.7543 20.5313 18.4554C20.7033 18.6012 20.8973 18.7953 21.3056 19.1975C22.0716 19.9531 24.0319 20.7307 24.0361 20.8221Z" fill="url(#paint4_radial_1:1043)"/>
<path id="Vector_6" d="M24.0361 20.8221C24.0178 21.1034 23.0278 22.069 22.6814 22.069C19.478 22.069 18.9581 24.0068 18.9581 24.0068C19.0988 25.639 20.2359 26.9829 21.6117 27.694C21.6745 27.7264 21.7378 27.7554 21.7992 27.7845C21.9094 27.8314 22.02 27.8782 22.1302 27.9199C22.602 28.0864 23.096 28.1812 23.5959 28.2012C29.2106 28.4646 30.2991 21.4878 26.2467 19.4618C27.2841 19.2814 28.3613 19.699 28.9627 20.1214C27.9783 18.4006 26.1384 17.239 24.0267 17.239C23.8931 17.239 23.7623 17.2503 23.6311 17.2592C22.5011 17.3375 21.4209 17.7543 20.5313 18.4554C20.7033 18.6012 20.8973 18.7953 21.3056 19.1975C22.0716 19.9531 24.0319 20.7307 24.0361 20.8221Z" fill="url(#paint5_radial_1:1043)"/>
<path id="Vector_7" d="M20.0077 18.0809C20.0991 18.14 20.1741 18.1897 20.242 18.2351C19.9854 17.3367 19.9745 16.3858 20.2106 15.4817C19.0533 16.009 18.1533 16.8411 17.4989 17.5775C17.5519 17.5761 19.1859 17.5465 20.0077 18.0809Z" fill="url(#paint6_radial_1:1043)"/>
<path id="Vector_8" d="M12.854 23.2555C13.7236 28.3907 18.3797 32.3146 23.6648 32.4646C28.5572 32.6028 31.6804 29.7632 32.9733 26.9928C33.8076 25.2018 34.387 22.2716 33.3239 19.3897V19.3682C33.3239 19.371 33.3239 19.3747 33.3262 19.3869C33.7256 21.9964 32.3986 24.5244 30.3239 26.2339C30.3217 26.2387 30.3197 26.2436 30.3178 26.2485C26.2748 29.5405 22.4062 28.2346 21.6229 27.7016C21.5686 27.6753 21.5137 27.6482 21.4594 27.62C19.102 26.495 18.1284 24.3458 18.337 22.5041C16.3472 22.5041 15.6684 20.825 15.6684 20.825C15.6684 20.825 17.4553 19.551 19.8103 20.6591C21.9914 21.6857 24.0398 20.8255 24.0398 20.825C24.0356 20.7336 22.0753 19.9536 21.3108 19.2003C20.9025 18.7982 20.7084 18.6041 20.5364 18.4583C20.4433 18.3796 20.346 18.3061 20.2448 18.238C20.1778 18.1911 20.1042 18.1443 20.0104 18.0838C19.1887 17.5494 17.5547 17.5789 17.5008 17.5803H17.4956C17.0489 17.0146 17.0803 15.1485 17.1056 14.7589C17.1004 14.7346 16.7728 14.9291 16.7306 14.9586C16.3364 15.2398 15.9679 15.5555 15.6295 15.9018C15.2444 16.2922 14.8925 16.7141 14.5776 17.1632C13.8531 18.1899 13.3393 19.3501 13.0659 20.5766C13.057 20.5982 12.6562 22.348 12.854 23.2555Z" fill="url(#paint7_radial_1:1043)"/>
<path id="Vector_9" d="M27.989 18.8098C28.4003 19.2133 28.7526 19.6728 29.0353 20.1748C29.0939 20.2189 29.1502 20.2658 29.204 20.3155C31.7578 22.6667 30.4218 25.9953 30.3201 26.2344C32.3948 24.5249 33.7218 21.9969 33.3225 19.3873C32.0489 16.2102 29.8889 14.9295 28.125 12.1419C28.0354 12.0012 27.9464 11.8606 27.8592 11.7102C27.81 11.6253 27.7701 11.5484 27.7354 11.4758C27.6623 11.3348 27.6059 11.1859 27.5672 11.0319C27.5675 11.0246 27.565 11.0174 27.5604 11.0118C27.5557 11.0061 27.5491 11.0024 27.5418 11.0014C27.5349 10.9995 27.5277 10.9995 27.5208 11.0014C27.5189 11.0023 27.5172 11.0034 27.5156 11.0047C27.5128 11.0047 27.51 11.008 27.5072 11.0089C27.0712 11.217 24.4875 15.3083 27.989 18.8098Z" fill="url(#paint8_radial_1:1043)"/>
<path id="Vector_10" d="M29.2031 20.313C29.1493 20.2633 29.0929 20.2164 29.0343 20.1724C29.0114 20.1551 28.9875 20.1377 28.964 20.1204C28.3626 19.6985 27.2854 19.2804 26.2481 19.4608C30.3 21.4868 29.212 28.4636 23.5973 28.2002C23.0974 28.1802 22.6033 28.0854 22.1315 27.919C22.0214 27.8777 21.9108 27.8322 21.8006 27.7835C21.7368 27.7544 21.6736 27.7254 21.6131 27.693L21.6206 27.6977C22.4039 28.2321 26.2725 29.538 30.3154 26.2446C30.3154 26.2446 30.3178 26.2385 30.3215 26.23C30.4218 25.9952 31.7578 22.6666 29.2031 20.313Z" fill="url(#paint9_radial_1:1043)"/>
<path id="Vector_11" d="M18.9581 24.0069C18.9581 24.0069 19.478 22.0691 22.6814 22.0691C23.0278 22.0691 24.0178 21.1025 24.0361 20.8222C24.0544 20.5419 21.9876 21.6828 19.8066 20.6562C17.4515 19.5481 15.6647 20.8222 15.6647 20.8222C15.6647 20.8222 16.3434 22.5012 18.3333 22.5012C18.1247 24.343 19.0983 26.4903 21.4556 27.6172C21.5081 27.642 21.5578 27.6697 21.6117 27.6941C20.2359 26.9844 19.1001 25.6391 18.9581 24.0069Z" fill="url(#paint10_radial_1:1043)"/>
<path id="Vector_12" d="M34.4395 18.7991C33.9502 17.6211 32.9583 16.3494 32.1797 15.9477C32.8134 17.1903 33.18 18.4367 33.3202 19.3667C33.3202 19.3667 33.3202 19.3733 33.3225 19.3855C32.0489 16.2102 29.8889 14.9295 28.125 12.1419C28.0355 12.0012 27.9464 11.8606 27.8592 11.7102C27.81 11.6253 27.7702 11.5484 27.7355 11.4758C27.6624 11.3348 27.6059 11.1859 27.5672 11.0319C27.5675 11.0246 27.5651 11.0174 27.5604 11.0118C27.5557 11.0061 27.5491 11.0024 27.5419 11.0014C27.535 10.9995 27.5277 10.9995 27.5208 11.0014C27.5189 11.0023 27.5172 11.0034 27.5156 11.0047C27.5128 11.0047 27.51 11.008 27.5072 11.0089L27.5119 11.0028C24.682 12.6603 23.722 15.7264 23.6339 17.2606C23.7652 17.2517 23.8959 17.2405 24.0295 17.2405C26.1412 17.2405 27.9806 18.402 28.9655 20.1228C28.3641 19.7009 27.2869 19.2828 26.2495 19.4633C30.3014 21.4892 29.2134 28.4661 23.5987 28.2027C23.0989 28.1826 22.6048 28.0878 22.133 27.9214C22.0228 27.8802 21.9122 27.8347 21.802 27.7859C21.7383 27.7569 21.675 27.7278 21.6145 27.6955L21.622 27.7002C21.5677 27.6739 21.5128 27.6467 21.4584 27.6186C21.5109 27.6434 21.5606 27.6711 21.6145 27.6955C20.2359 26.9844 19.1002 25.6391 18.9581 24.0069C18.9581 24.0069 19.478 22.0691 22.6814 22.0691C23.0278 22.0691 24.0178 21.1025 24.0361 20.8222C24.0319 20.7308 22.0716 19.9508 21.307 19.1975C20.8987 18.7953 20.7047 18.6013 20.5327 18.4555C20.4396 18.3768 20.3422 18.3032 20.2411 18.2352C19.9844 17.3367 19.9736 16.3858 20.2097 15.4817C19.0523 16.0091 18.1523 16.8411 17.498 17.5775H17.4928C17.0461 17.0117 17.0775 15.1456 17.1028 14.7561C17.0977 14.7317 16.77 14.9262 16.7278 14.9558C16.3336 15.237 15.9652 15.5526 15.6267 15.8989C15.2416 16.2894 14.8897 16.7113 14.5748 17.1603C13.8503 18.1871 13.3365 19.3472 13.0631 20.5738C13.058 20.5981 13.0533 20.6234 13.0481 20.6483C13.027 20.7472 12.9314 21.2506 12.9183 21.3584C12.9183 21.3669 12.9183 21.3505 12.9183 21.3584C12.8305 21.8786 12.7743 22.4037 12.75 22.9306V22.9883C12.75 29.2095 17.7937 34.2533 24.015 34.2533C29.587 34.2533 34.2131 30.208 35.1192 24.8942C35.138 24.7503 35.1534 24.605 35.1703 24.4597C35.3944 22.5275 35.1455 20.4969 34.4395 18.7991ZM33.322 19.3775V19.3897V19.3775Z" fill="url(#paint11_linear_1:1043)"/>
</g>
<rect x="0.5" y="0.5" width="198" height="46" stroke="black"/>
</g>
<defs>
<filter id="filter0_d_1:1043" x="-2" y="-1.5" width="203" height="51" filterUnits="userSpaceOnUse" color-interpolation-filters="sRGB">
<feFlood flood-opacity="0" result="BackgroundImageFix"/>
<feColorMatrix in="SourceAlpha" type="matrix" values="0 0 0 0 0 0 0 0 0 0 0 0 0 0 0 0 0 0 127 0" result="hardAlpha"/>
<feOffset dy="0.5"/>
<feGaussianBlur stdDeviation="1"/>
<feColorMatrix type="matrix" values="0 0 0 0 0 0 0 0 0 0 0 0 0 0 0 0 0 0 0.1 0"/>
<feBlend mode="normal" in2="BackgroundImageFix" result="effect1_dropShadow_1:1043"/>
<feBlend mode="normal" in="SourceGraphic" in2="effect1_dropShadow_1:1043" result="shape"/>
</filter>
<linearGradient id="paint0_linear_1:1043" x1="32.9484" y1="14.6023" x2="14.2472" y2="32.6455" gradientUnits="userSpaceOnUse">
<stop offset="0.05" stop-color="#FFF44F"/>
<stop offset="0.11" stop-color="#FFE847"/>
<stop offset="0.22" stop-color="#FFC830"/>
<stop offset="0.37" stop-color="#FF980E"/>
<stop offset="0.4" stop-color="#FF8B16"/>
<stop offset="0.46" stop-color="#FF672A"/>
<stop offset="0.53" stop-color="#FF3647"/>
<stop offset="0.7" stop-color="#E31587"/>
</linearGradient>
<radialGradient id="paint1_radial_1:1043" cx="0" cy="0" r="1" gradientUnits="userSpaceOnUse" gradientTransform="translate(32.0841 13.581) scale(23.4848)">
<stop offset="0.13" stop-color="#FFBD4F"/>
<stop offset="0.19" stop-color="#FFAC31"/>
<stop offset="0.25" stop-color="#FF9D17"/>
<stop offset="0.28" stop-color="#FF980E"/>
<stop offset="0.4" stop-color="#FF563B"/>
<stop offset="0.47" stop-color="#FF3750"/>
<stop offset="0.71" stop-color="#F5156C"/>
<stop offset="0.78" stop-color="#EB0878"/>
<stop offset="0.86" stop-color="#E50080"/>
</radialGradient>
<radialGradient id="paint2_radial_1:1043" cx="0" cy="0" r="1" gradientUnits="userSpaceOnUse" gradientTransform="translate(23.5027 23.182) scale(23.4848)">
<stop offset="0.3" stop-color="#960E18"/>
<stop offset="0.35" stop-color="#B11927" stop-opacity="0.74"/>
<stop offset="0.43" stop-color="#DB293D" stop-opacity="0.34"/>
<stop offset="0.5" stop-color="#F5334B" stop-opacity="0.09"/>
<stop offset="0.53" stop-color="#FF3750" stop-opacity="0"/>
</radialGradient>
<radialGradient id="paint3_radial_1:1043" cx="0" cy="0" r="1" gradientUnits="userSpaceOnUse" gradientTransform="translate(26.3344 8.25137) scale(17.0138)">
<stop offset="0.13" stop-color="#FFF44F"/>
<stop offset="0.25" stop-color="#FFDC3E"/>
<stop offset="0.51" stop-color="#FF9D12"/>
<stop offset="0.53" stop-color="#FF980E"/>
</radialGradient>
<radialGradient id="paint4_radial_1:1043" cx="0" cy="0" r="1" gradientUnits="userSpaceOnUse" gradientTransform="translate(20.9053 29.3164) scale(11.182)">
<stop offset="0.35" stop-color="#3A8EE6"/>
<stop offset="0.47" stop-color="#5C79F0"/>
<stop offset="0.67" stop-color="#9059FF"/>
<stop offset="1" stop-color="#C139E6"/>
</radialGradient>
<radialGradient id="paint5_radial_1:1043" cx="0" cy="0" r="1" gradientUnits="userSpaceOnUse" gradientTransform="translate(23.8399 20.3907) rotate(-13.8972) scale(5.9243 6.95964)">
<stop offset="0.21" stop-color="#9059FF" stop-opacity="0"/>
<stop offset="0.28" stop-color="#8C4FF3" stop-opacity="0.06"/>
<stop offset="0.75" stop-color="#7716A8" stop-opacity="0.45"/>
<stop offset="0.97" stop-color="#6E008B" stop-opacity="0.6"/>
</radialGradient>
<radialGradient id="paint6_radial_1:1043" cx="0" cy="0" r="1" gradientUnits="userSpaceOnUse" gradientTransform="translate(23.2059 12.62) scale(8.04469)">
<stop stop-color="#FFE226"/>
<stop offset="0.12" stop-color="#FFDB27"/>
<stop offset="0.3" stop-color="#FFC82A"/>
<stop offset="0.5" stop-color="#FFA930"/>
<stop offset="0.73" stop-color="#FF7E37"/>
<stop offset="0.79" stop-color="#FF7139"/>
</radialGradient>
<radialGradient id="paint7_radial_1:1043" cx="0" cy="0" r="1" gradientUnits="userSpaceOnUse" gradientTransform="translate(29.5293 7.51769) scale(34.3223)">
<stop offset="0.11" stop-color="#FFF44F"/>
<stop offset="0.46" stop-color="#FF980E"/>
<stop offset="0.62" stop-color="#FF5634"/>
<stop offset="0.72" stop-color="#FF3647"/>
<stop offset="0.9" stop-color="#E31587"/>
</radialGradient>
<radialGradient id="paint8_radial_1:1043" cx="0" cy="0" r="1" gradientUnits="userSpaceOnUse" gradientTransform="translate(26.2117 11.2676) rotate(84.2321) scale(25.0176 16.4367)">
<stop stop-color="#FFF44F"/>
<stop offset="0.06" stop-color="#FFE847"/>
<stop offset="0.17" stop-color="#FFC830"/>
<stop offset="0.3" stop-color="#FF980E"/>
<stop offset="0.36" stop-color="#FF8B16"/>
<stop offset="0.45" stop-color="#FF672A"/>
<stop offset="0.57" stop-color="#FF3647"/>
<stop offset="0.74" stop-color="#E31587"/>
</radialGradient>
<radialGradient id="paint9_radial_1:1043" cx="0" cy="0" r="1" gradientUnits="userSpaceOnUse" gradientTransform="translate(23.0165 15.5993) scale(21.4275)">
<stop offset="0.14" stop-color="#FFF44F"/>
<stop offset="0.48" stop-color="#FF980E"/>
<stop offset="0.59" stop-color="#FF5634"/>
<stop offset="0.66" stop-color="#FF3647"/>
<stop offset="0.9" stop-color="#E31587"/>
</radialGradient>
<radialGradient id="paint10_radial_1:1043" cx="0" cy="0" r="1" gradientUnits="userSpaceOnUse" gradientTransform="translate(28.673 16.8537) scale(23.4525)">
<stop offset="0.09" stop-color="#FFF44F"/>
<stop offset="0.23" stop-color="#FFE141"/>
<stop offset="0.51" stop-color="#FFAF1E"/>
<stop offset="0.63" stop-color="#FF980E"/>
</radialGradient>
<linearGradient id="paint11_linear_1:1043" x1="32.7234" y1="14.5058" x2="16.8112" y2="30.4184" gradientUnits="userSpaceOnUse">
<stop offset="0.17" stop-color="#FFF44F" stop-opacity="0.8"/>
<stop offset="0.27" stop-color="#FFF44F" stop-opacity="0.63"/>
<stop offset="0.49" stop-color="#FFF44F" stop-opacity="0.22"/>
<stop offset="0.6" stop-color="#FFF44F" stop-opacity="0"/>
</linearGradient>
</defs>
</svg>
