<svg width="207" height="47" viewBox="0 0 207 47" fill="none" xmlns="http://www.w3.org/2000/svg">
<g id="Frame">
<g id="Rectangle" filter="url(#filter0_d_1:1000)">
<path d="M0 9C0 4.02944 4.02944 0 9 0H198C202.971 0 207 4.02944 207 9V38C207 42.9706 202.971 47 198 47H9C4.02944 47 0 42.9706 0 38V9Z" fill="white"/>
</g>
<path id="Chrome Extension" d="M57.8867 24.7373C57.7871 26.1143 57.2773 27.1982 56.3574 27.9893C55.4434 28.7803 54.2363 29.1758 52.7363 29.1758C51.0957 29.1758 49.8037 28.625 48.8604 27.5234C47.9229 26.416 47.4541 24.8984 47.4541 22.9707V22.1885C47.4541 20.958 47.6709 19.874 48.1045 18.9365C48.5381 17.999 49.1562 17.2812 49.959 16.7832C50.7676 16.2793 51.7051 16.0273 52.7715 16.0273C54.248 16.0273 55.4375 16.4229 56.3398 17.2139C57.2422 18.0049 57.7637 19.1152 57.9043 20.5449H55.2676C55.2031 19.7188 54.9717 19.1211 54.5732 18.752C54.1807 18.377 53.5801 18.1895 52.7715 18.1895C51.8926 18.1895 51.2334 18.5059 50.7939 19.1387C50.3604 19.7656 50.1377 20.7412 50.126 22.0654V23.0322C50.126 24.415 50.334 25.4258 50.75 26.0645C51.1719 26.7031 51.834 27.0225 52.7363 27.0225C53.5508 27.0225 54.1572 26.8379 54.5557 26.4688C54.96 26.0938 55.1914 25.5166 55.25 24.7373H57.8867ZM61.9297 20.5273C62.6035 19.7188 63.4502 19.3145 64.4697 19.3145C66.5322 19.3145 67.5781 20.5127 67.6074 22.9092V29H65.0674V22.9795C65.0674 22.4346 64.9502 22.0332 64.7158 21.7754C64.4814 21.5117 64.0918 21.3799 63.5469 21.3799C62.8027 21.3799 62.2637 21.667 61.9297 22.2412V29H59.3896V15.5H61.9297V20.5273ZM74.8672 21.8721C74.5215 21.8252 74.2168 21.8018 73.9531 21.8018C72.9922 21.8018 72.3623 22.127 72.0635 22.7773V29H69.5234V19.4902H71.9229L71.9932 20.624C72.5029 19.751 73.209 19.3145 74.1113 19.3145C74.3926 19.3145 74.6562 19.3525 74.9023 19.4287L74.8672 21.8721ZM75.3857 24.1572C75.3857 23.2139 75.5674 22.373 75.9307 21.6348C76.2939 20.8965 76.8154 20.3252 77.4951 19.9209C78.1807 19.5166 78.9746 19.3145 79.877 19.3145C81.1602 19.3145 82.2061 19.707 83.0146 20.4922C83.8291 21.2773 84.2832 22.3438 84.377 23.6914L84.3945 24.3418C84.3945 25.8008 83.9873 26.9727 83.1729 27.8574C82.3584 28.7363 81.2656 29.1758 79.8945 29.1758C78.5234 29.1758 77.4277 28.7363 76.6074 27.8574C75.793 26.9785 75.3857 25.7832 75.3857 24.2715V24.1572ZM77.9258 24.3418C77.9258 25.2441 78.0957 25.9355 78.4355 26.416C78.7754 26.8906 79.2617 27.1279 79.8945 27.1279C80.5098 27.1279 80.9902 26.8936 81.3359 26.4248C81.6816 25.9502 81.8545 25.1943 81.8545 24.1572C81.8545 23.2725 81.6816 22.5869 81.3359 22.1006C80.9902 21.6143 80.5039 21.3711 79.877 21.3711C79.2559 21.3711 78.7754 21.6143 78.4355 22.1006C78.0957 22.5811 77.9258 23.3281 77.9258 24.3418ZM88.3408 19.4902L88.4199 20.5537C89.0938 19.7275 90.0049 19.3145 91.1533 19.3145C92.3779 19.3145 93.2188 19.7979 93.6758 20.7646C94.3438 19.7979 95.2959 19.3145 96.5322 19.3145C97.5635 19.3145 98.3311 19.6162 98.835 20.2197C99.3389 20.8174 99.5908 21.7197 99.5908 22.9268V29H97.042V22.9355C97.042 22.3965 96.9365 22.0039 96.7256 21.7578C96.5146 21.5059 96.1426 21.3799 95.6094 21.3799C94.8477 21.3799 94.3203 21.7432 94.0273 22.4697L94.0361 29H91.4961V22.9443C91.4961 22.3936 91.3877 21.9951 91.1709 21.749C90.9541 21.5029 90.585 21.3799 90.0635 21.3799C89.3428 21.3799 88.8213 21.6787 88.499 22.2764V29H85.959V19.4902H88.3408ZM105.928 29.1758C104.533 29.1758 103.396 28.748 102.518 27.8926C101.645 27.0371 101.208 25.8975 101.208 24.4736V24.2275C101.208 23.2725 101.393 22.4199 101.762 21.6699C102.131 20.9141 102.652 20.334 103.326 19.9297C104.006 19.5195 104.779 19.3145 105.646 19.3145C106.947 19.3145 107.97 19.7246 108.714 20.5449C109.464 21.3652 109.839 22.5283 109.839 24.0342V25.0713H103.783C103.865 25.6924 104.111 26.1904 104.521 26.5654C104.938 26.9404 105.462 27.1279 106.095 27.1279C107.073 27.1279 107.838 26.7734 108.389 26.0645L109.637 27.4619C109.256 28.001 108.74 28.4229 108.09 28.7275C107.439 29.0264 106.719 29.1758 105.928 29.1758ZM105.638 21.3711C105.134 21.3711 104.724 21.541 104.407 21.8809C104.097 22.2207 103.897 22.707 103.81 23.3398H107.343V23.1377C107.331 22.5752 107.179 22.1416 106.886 21.8369C106.593 21.5264 106.177 21.3711 105.638 21.3711ZM123.638 23.4541H118.575V26.8818H124.517V29H115.938V16.2031H124.499V18.3389H118.575V21.3887H123.638V23.4541ZM129.518 22.3291L131.117 19.4902H133.833L131.126 24.1484L133.947 29H131.223L129.526 26.0117L127.839 29H125.105L127.927 24.1484L125.229 19.4902H127.953L129.518 22.3291ZM138.096 17.1523V19.4902H139.722V21.3535H138.096V26.0996C138.096 26.4512 138.163 26.7031 138.298 26.8555C138.433 27.0078 138.69 27.084 139.071 27.084C139.353 27.084 139.602 27.0635 139.818 27.0225V28.9473C139.32 29.0996 138.808 29.1758 138.28 29.1758C136.499 29.1758 135.591 28.2764 135.556 26.4775V21.3535H134.167V19.4902H135.556V17.1523H138.096ZM145.514 29.1758C144.119 29.1758 142.982 28.748 142.104 27.8926C141.23 27.0371 140.794 25.8975 140.794 24.4736V24.2275C140.794 23.2725 140.979 22.4199 141.348 21.6699C141.717 20.9141 142.238 20.334 142.912 19.9297C143.592 19.5195 144.365 19.3145 145.232 19.3145C146.533 19.3145 147.556 19.7246 148.3 20.5449C149.05 21.3652 149.425 22.5283 149.425 24.0342V25.0713H143.369C143.451 25.6924 143.697 26.1904 144.107 26.5654C144.523 26.9404 145.048 27.1279 145.681 27.1279C146.659 27.1279 147.424 26.7734 147.975 26.0645L149.223 27.4619C148.842 28.001 148.326 28.4229 147.676 28.7275C147.025 29.0264 146.305 29.1758 145.514 29.1758ZM145.224 21.3711C144.72 21.3711 144.31 21.541 143.993 21.8809C143.683 22.2207 143.483 22.707 143.396 23.3398H146.929V23.1377C146.917 22.5752 146.765 22.1416 146.472 21.8369C146.179 21.5264 145.763 21.3711 145.224 21.3711ZM153.213 19.4902L153.292 20.5889C153.972 19.7393 154.883 19.3145 156.025 19.3145C157.033 19.3145 157.783 19.6104 158.275 20.2021C158.768 20.7939 159.02 21.6787 159.031 22.8564V29H156.491V22.918C156.491 22.3789 156.374 21.9893 156.14 21.749C155.905 21.5029 155.516 21.3799 154.971 21.3799C154.256 21.3799 153.72 21.6846 153.362 22.2939V29H150.822V19.4902H153.213ZM166.115 26.3721C166.115 26.0615 165.96 25.8184 165.649 25.6426C165.345 25.4609 164.853 25.2998 164.173 25.1592C161.911 24.6846 160.78 23.7236 160.78 22.2764C160.78 21.4326 161.129 20.7295 161.826 20.167C162.529 19.5986 163.446 19.3145 164.577 19.3145C165.784 19.3145 166.748 19.5986 167.469 20.167C168.195 20.7354 168.559 21.4736 168.559 22.3818H166.019C166.019 22.0186 165.901 21.7197 165.667 21.4854C165.433 21.2451 165.066 21.125 164.568 21.125C164.141 21.125 163.81 21.2217 163.575 21.415C163.341 21.6084 163.224 21.8545 163.224 22.1533C163.224 22.4346 163.355 22.6631 163.619 22.8389C163.889 23.0088 164.34 23.1582 164.973 23.2871C165.605 23.4102 166.139 23.5508 166.572 23.709C167.914 24.2012 168.585 25.0537 168.585 26.2666C168.585 27.1338 168.213 27.8369 167.469 28.376C166.725 28.9092 165.764 29.1758 164.586 29.1758C163.789 29.1758 163.08 29.0352 162.459 28.7539C161.844 28.4668 161.36 28.0771 161.009 27.585C160.657 27.0869 160.481 26.5508 160.481 25.9766H162.89C162.913 26.4277 163.08 26.7734 163.391 27.0137C163.701 27.2539 164.117 27.374 164.639 27.374C165.125 27.374 165.491 27.2832 165.737 27.1016C165.989 26.9141 166.115 26.6709 166.115 26.3721ZM172.909 29H170.36V19.4902H172.909V29ZM170.211 17.0293C170.211 16.6484 170.337 16.335 170.589 16.0889C170.847 15.8428 171.195 15.7197 171.635 15.7197C172.068 15.7197 172.414 15.8428 172.672 16.0889C172.93 16.335 173.059 16.6484 173.059 17.0293C173.059 17.416 172.927 17.7324 172.663 17.9785C172.405 18.2246 172.062 18.3477 171.635 18.3477C171.207 18.3477 170.861 18.2246 170.598 17.9785C170.34 17.7324 170.211 17.416 170.211 17.0293ZM174.614 24.1572C174.614 23.2139 174.796 22.373 175.159 21.6348C175.522 20.8965 176.044 20.3252 176.724 19.9209C177.409 19.5166 178.203 19.3145 179.105 19.3145C180.389 19.3145 181.435 19.707 182.243 20.4922C183.058 21.2773 183.512 22.3438 183.605 23.6914L183.623 24.3418C183.623 25.8008 183.216 26.9727 182.401 27.8574C181.587 28.7363 180.494 29.1758 179.123 29.1758C177.752 29.1758 176.656 28.7363 175.836 27.8574C175.021 26.9785 174.614 25.7832 174.614 24.2715V24.1572ZM177.154 24.3418C177.154 25.2441 177.324 25.9355 177.664 26.416C178.004 26.8906 178.49 27.1279 179.123 27.1279C179.738 27.1279 180.219 26.8936 180.564 26.4248C180.91 25.9502 181.083 25.1943 181.083 24.1572C181.083 23.2725 180.91 22.5869 180.564 22.1006C180.219 21.6143 179.732 21.3711 179.105 21.3711C178.484 21.3711 178.004 21.6143 177.664 22.1006C177.324 22.5811 177.154 23.3281 177.154 24.3418ZM187.525 19.4902L187.604 20.5889C188.284 19.7393 189.195 19.3145 190.338 19.3145C191.346 19.3145 192.096 19.6104 192.588 20.2021C193.08 20.7939 193.332 21.6787 193.344 22.8564V29H190.804V22.918C190.804 22.3789 190.687 21.9893 190.452 21.749C190.218 21.5029 189.828 21.3799 189.283 21.3799C188.568 21.3799 188.032 21.6846 187.675 22.2939V29H185.135V19.4902H187.525Z" fill="#12100C"/>
<g id="Frame_2">
<g id="Group">
<path id="vectors" d="M14.7463 12V25.5H19.67L24 18H35V12H14.7463Z" fill="#DB4437"/>
<path id="Vector_2" d="M14.7463 12V25.5H19.67L24 18H35V12H14.7463Z" fill="url(#paint0_linear_1:1000)"/>
</g>
<path id="Vector_3" d="M19.7887 25.4562L14.81 16.9175L14.7375 17.0425L19.68 25.5175L19.7887 25.4562Z" fill="#3E2723" fill-opacity="0.15"/>
<g id="Group_2">
<path id="Vector_4" d="M13 34.0001H23.4712L28.3312 29.1401V25.5001H19.67L13 14.0601V34.0001Z" fill="#0F9D58"/>
<path id="Vector_5" d="M13 34.0001H23.4712L28.3312 29.1401V25.5001H19.67L13 14.0601V34.0001Z" fill="url(#paint1_linear_1:1000)"/>
</g>
<path id="Vector_6" d="M28.23 25.6662L28.1263 25.6062L23.3275 34H23.4713L28.2338 25.67L28.23 25.6662Z" fill="#263238" fill-opacity="0.15"/>
<g id="Group_3">
<g id="Group_4">
<path id="Vector_7" d="M24 18L28.3313 25.5L23.4713 34H35V18H24Z" fill="#FFCD40"/>
<path id="Vector_8" d="M24 18L28.3313 25.5L23.4713 34H35V18H24Z" fill="url(#paint2_linear_1:1000)"/>
</g>
</g>
<g id="Group_5">
<path id="Vector_9" d="M24 18L28.3313 25.5L23.4713 34H35V18H24Z" fill="#FFCD40"/>
<path id="Vector_10" d="M24 18L28.3313 25.5L23.4713 34H35V18H24Z" fill="url(#paint3_linear_1:1000)"/>
</g>
<g id="Group_6">
<g id="Group_7">
<path id="Vector_11" d="M14.7463 12V25.5H19.67L24 18H35V12H14.7463Z" fill="#DB4437"/>
<path id="Vector_12" d="M14.7463 12V25.5H19.67L24 18H35V12H14.7463Z" fill="url(#paint4_linear_1:1000)"/>
</g>
</g>
<path id="Vector_13" d="M24 18V20.6187L33.8 18H24Z" fill="url(#paint5_radial_1:1000)"/>
<g id="Group_8">
<g id="Group_9">
<path id="Vector_14" d="M13 34.0001H23.4712L28.3312 29.1401V25.5001H19.67L13 14.0601V34.0001Z" fill="#0F9D58"/>
<path id="Vector_15" d="M13 34.0001H23.4712L28.3312 29.1401V25.5001H19.67L13 14.0601V34.0001Z" fill="url(#paint6_linear_1:1000)"/>
</g>
</g>
<path id="Vector_16" d="M14.7463 17.0562L21.9025 24.2112L19.67 25.4999L14.7463 17.0562Z" fill="url(#paint7_radial_1:1000)"/>
<path id="Vector_17" d="M23.4788 33.9862L26.0988 24.2112L28.3313 25.4999L23.4788 33.9862Z" fill="url(#paint8_radial_1:1000)"/>
<g id="Group_10">
<path id="Vector_18" d="M24 28C26.7614 28 29 25.7614 29 23C29 20.2386 26.7614 18 24 18C21.2386 18 19 20.2386 19 23C19 25.7614 21.2386 28 24 28Z" fill="#F1F1F1"/>
<path id="Vector_19" d="M24 27C26.2091 27 28 25.2091 28 23C28 20.7909 26.2091 19 24 19C21.7909 19 20 20.7909 20 23C20 25.2091 21.7909 27 24 27Z" fill="#4285F4"/>
</g>
<g id="Group_11">
<path id="Vector_20" d="M24 17.875C21.2387 17.875 19 20.1137 19 22.875V23C19 20.2387 21.2387 18 24 18H35V17.875H24Z" fill="#3E2723" fill-opacity="0.2"/>
<path id="Vector_21" d="M28.325 25.5001C27.46 26.9926 25.8488 28.0001 24 28.0001C22.15 28.0001 20.5387 26.9926 19.6737 25.5001H19.6687L13 14.0601V14.1851L19.67 25.6251H19.675C20.54 27.1176 22.1512 28.1251 24.0013 28.1251C25.85 28.1251 27.4613 27.1188 28.3263 25.6251H28.3325V25.5001H28.325Z" fill="white" fill-opacity="0.1"/>
<path id="Vector_22" opacity="0.1" d="M24.125 18C24.1037 18 24.0838 18.0025 24.0625 18.0037C26.795 18.0375 29 20.26 29 23C29 25.74 26.795 27.9625 24.0625 27.9963C24.0838 27.9963 24.1037 28 24.125 28C26.8863 28 29.125 25.7613 29.125 23C29.125 20.2387 26.8863 18 24.125 18Z" fill="#3E2723"/>
<path id="Vector_23" d="M28.375 25.6664C28.8 24.9314 29.0463 24.0814 29.0463 23.1714C29.0463 22.6439 28.9638 22.1364 28.8125 21.6602C28.9313 22.0877 29 22.5364 29 23.0014C29 23.9114 28.7538 24.7614 28.3288 25.4964L28.3313 25.5014L23.4713 34.0014H23.6163L28.3775 25.6714L28.375 25.6664Z" fill="white" fill-opacity="0.2"/>
</g>
<g id="Group_12">
<path id="Vector_24" d="M24 12.125C30.0537 12.125 34.965 17.0163 34.9988 23.0625C34.9988 23.0413 35 23.0212 35 23C35 16.925 30.075 12 24 12C17.925 12 13 16.925 13 23C13 23.0212 13.0013 23.0413 13.0013 23.0625C13.035 17.0163 17.9462 12.125 24 12.125Z" fill="white" fill-opacity="0.2"/>
<path id="Vector_25" d="M24 33.875C30.0537 33.875 34.965 28.9837 34.9988 22.9375C34.9988 22.9588 35 22.9787 35 23C35 29.075 30.075 34 24 34C17.925 34 13 29.075 13 23C13 22.9787 13.0013 22.9588 13.0013 22.9375C13.035 28.9837 17.9462 33.875 24 33.875Z" fill="#3E2723" fill-opacity="0.15"/>
</g>
<path id="Vector_26" d="M24 34C30.0751 34 35 29.0751 35 23C35 16.9249 30.0751 12 24 12C17.9249 12 13 16.9249 13 23C13 29.0751 17.9249 34 24 34Z" fill="url(#paint9_radial_1:1000)"/>
</g>
<rect x="0.5" y="0.5" width="206" height="46" stroke="black"/>
</g>
<defs>
<filter id="filter0_d_1:1000" x="-2" y="-1.5" width="211" height="51" filterUnits="userSpaceOnUse" color-interpolation-filters="sRGB">
<feFlood flood-opacity="0" result="BackgroundImageFix"/>
<feColorMatrix in="SourceAlpha" type="matrix" values="0 0 0 0 0 0 0 0 0 0 0 0 0 0 0 0 0 0 127 0" result="hardAlpha"/>
<feOffset dy="0.5"/>
<feGaussianBlur stdDeviation="1"/>
<feColorMatrix type="matrix" values="0 0 0 0 0 0 0 0 0 0 0 0 0 0 0 0 0 0 0.1 0"/>
<feBlend mode="normal" in2="BackgroundImageFix" result="effect1_dropShadow_1:1000"/>
<feBlend mode="normal" in="SourceGraphic" in2="effect1_dropShadow_1:1000" result="shape"/>
</filter>
<linearGradient id="paint0_linear_1:1000" x1="15.6672" y1="20.3776" x2="22.2297" y2="16.5442" gradientUnits="userSpaceOnUse">
<stop stop-color="#A52714" stop-opacity="0.6"/>
<stop offset="0.66" stop-color="#A52714" stop-opacity="0"/>
</linearGradient>
<linearGradient id="paint1_linear_1:1000" x1="25.859" y1="31.5619" x2="18.5672" y2="27.2912" gradientUnits="userSpaceOnUse">
<stop stop-color="#055524" stop-opacity="0.4"/>
<stop offset="0.33" stop-color="#055524" stop-opacity="0"/>
</linearGradient>
<linearGradient id="paint2_linear_1:1000" x1="27.2323" y1="17.2255" x2="29.0684" y2="25.2662" gradientUnits="userSpaceOnUse">
<stop stop-color="#EA6100" stop-opacity="0.3"/>
<stop offset="0.66" stop-color="#EA6100" stop-opacity="0"/>
</linearGradient>
<linearGradient id="paint3_linear_1:1000" x1="27.2323" y1="17.2255" x2="29.0684" y2="25.2662" gradientUnits="userSpaceOnUse">
<stop stop-color="#EA6100" stop-opacity="0.3"/>
<stop offset="0.66" stop-color="#EA6100" stop-opacity="0"/>
</linearGradient>
<linearGradient id="paint4_linear_1:1000" x1="15.6672" y1="20.3776" x2="22.2297" y2="16.5442" gradientUnits="userSpaceOnUse">
<stop stop-color="#A52714" stop-opacity="0.6"/>
<stop offset="0.66" stop-color="#A52714" stop-opacity="0"/>
</linearGradient>
<radialGradient id="paint5_radial_1:1000" cx="0" cy="0" r="1" gradientUnits="userSpaceOnUse" gradientTransform="translate(23.522 17.9935) scale(10.5097)">
<stop stop-color="#3E2723" stop-opacity="0.2"/>
<stop offset="1" stop-color="#3E2723" stop-opacity="0"/>
</radialGradient>
<linearGradient id="paint6_linear_1:1000" x1="25.859" y1="31.5619" x2="18.5672" y2="27.2912" gradientUnits="userSpaceOnUse">
<stop stop-color="#055524" stop-opacity="0.4"/>
<stop offset="0.33" stop-color="#055524" stop-opacity="0"/>
</linearGradient>
<radialGradient id="paint7_radial_1:1000" cx="0" cy="0" r="1" gradientUnits="userSpaceOnUse" gradientTransform="translate(14.7344 17.0649) scale(9.7555)">
<stop stop-color="#3E2723" stop-opacity="0.2"/>
<stop offset="1" stop-color="#3E2723" stop-opacity="0"/>
</radialGradient>
<radialGradient id="paint8_radial_1:1000" cx="0" cy="0" r="1" gradientUnits="userSpaceOnUse" gradientTransform="translate(23.9805 23.0172) scale(10.9837)">
<stop stop-color="#263238" stop-opacity="0.2"/>
<stop offset="1" stop-color="#263238" stop-opacity="0"/>
</radialGradient>
<radialGradient id="paint9_radial_1:1000" cx="0" cy="0" r="1" gradientUnits="userSpaceOnUse" gradientTransform="translate(16.2857 15.0018) scale(22.0932)">
<stop stop-color="white" stop-opacity="0.1"/>
<stop offset="1" stop-color="white" stop-opacity="0"/>
</radialGradient>
</defs>
</svg>
