<svg width="602" height="605" viewBox="0 0 602 605" fill="none" xmlns="http://www.w3.org/2000/svg">
<rect width="602" height="605" fill="#E5E5E5"/>
<g id="undraw_browsing_re_eycn 1" clip-path="url(#clip0_0_1)">
<path id="Path 1" d="M599.155 36.5796L0.52099 108.587C0.451456 108.595 0.380937 108.584 0.318048 108.553C0.252616 108.52 0.195878 108.472 0.152429 108.413C0.102222 108.346 0.0643046 108.27 0.0404297 108.19C0.0129425 108.097 -0.000688513 108.001 -6.11092e-06 107.905C1.47531e-05 107.805 0.0138728 107.706 0.0411926 107.61C0.0667804 107.522 0.105289 107.437 0.155481 107.36C0.199176 107.29 0.25532 107.23 0.3211 107.18C0.380525 107.136 0.450397 107.107 0.524042 107.097L599.155 34.0962C599.343 34.072 599.534 34.0817 599.719 34.1249C599.885 34.1636 600.042 34.235 600.18 34.3349C600.31 34.4286 600.416 34.5507 600.491 34.6917C600.566 34.8357 600.606 34.9958 600.605 35.1583C600.604 35.3305 600.565 35.5004 600.491 35.6559C600.414 35.8175 600.309 35.964 600.18 36.0882C600.045 36.2197 599.889 36.3284 599.719 36.4101C599.542 36.4974 599.351 36.5546 599.155 36.5796V36.5796Z" fill="#CACACA"/>
<path id="Path 1_2" d="M600.234 604.982L0.383905 543.92C0.314193 543.913 0.248002 543.886 0.193414 543.842C0.136811 543.796 0.0919935 543.736 0.0625547 543.669C0.0283152 543.593 0.00789075 543.511 0.00225192 543.427C-0.00429861 543.331 0.00346275 543.234 0.0252622 543.141C0.0471459 543.043 0.0824416 542.95 0.130121 542.862C0.174521 542.781 0.230584 542.707 0.296533 542.643C0.354422 542.585 0.422551 542.538 0.497522 542.504C0.565285 542.473 0.639768 542.461 0.7138 542.467L600.778 602.559C600.967 602.577 601.151 602.628 601.322 602.711C601.476 602.785 601.613 602.889 601.726 603.017C601.832 603.137 601.909 603.279 601.951 603.433C601.993 603.59 601.996 603.755 601.96 603.913C601.921 604.081 601.846 604.238 601.739 604.374C601.629 604.515 601.494 604.634 601.341 604.727C601.18 604.826 601.005 604.898 600.821 604.94C600.629 604.986 600.43 605.001 600.234 604.982Z" fill="#CACACA"/>
<path id="Ellipse 1" d="M12.4088 79.9812C13.1884 79.8608 13.9862 79.9689 14.7057 80.2922C15.4457 80.6349 16.0922 81.151 16.5904 81.7967C17.1625 82.5344 17.5947 83.3706 17.8656 84.2639C18.1825 85.2966 18.3398 86.3716 18.3321 87.4518C18.3331 88.5741 18.176 89.691 17.8656 90.7696C17.5811 91.7692 17.1515 92.7218 16.5904 93.5967C16.0912 94.3849 15.4525 95.0755 14.7057 95.6346C14.0318 96.1392 13.242 96.4664 12.4088 96.5863C11.6294 96.6925 10.8359 96.5712 10.1236 96.2372C9.39237 95.8834 8.75569 95.3607 8.2661 94.7125C7.70591 93.9761 7.28291 93.1448 7.01735 92.2585C6.7078 91.2377 6.55369 90.1762 6.56016 89.1095C6.55999 88.0011 6.71386 86.8982 7.01735 85.8322C7.29576 84.841 7.7161 83.8953 8.26533 83.0245C8.75712 82.2358 9.38657 81.5418 10.1237 80.9756C10.7912 80.4599 11.5765 80.1181 12.4088 79.9812V79.9812Z" fill="#FF0000" fill-opacity="0.54"/>
<path id="Ellipse 2" d="M33.2096 76.8601C34.024 76.7343 34.8574 76.8421 35.613 77.1711C36.3844 77.5152 37.0618 78.0397 37.5879 78.7006C38.185 79.4504 38.6374 80.3046 38.9222 81.2198C39.2535 82.2745 39.418 83.3745 39.4097 84.48C39.41 85.6295 39.245 86.773 38.9199 87.8755C38.6214 88.9003 38.1725 89.875 37.5879 90.768C37.0628 91.5785 36.3947 92.2867 35.6161 92.858C34.9083 93.3794 34.0828 93.718 33.2127 93.8439C32.3986 93.9549 31.5697 93.8334 30.8218 93.4932C30.0599 93.136 29.3937 92.6031 28.8779 91.9382C28.2926 91.1899 27.8491 90.3408 27.5693 89.4329C27.2457 88.3908 27.0844 87.3051 27.0911 86.2139C27.0912 85.0793 27.2522 83.9505 27.5693 82.8612C27.8616 81.8436 28.3015 80.8743 28.8748 79.9843C29.3922 79.174 30.0505 78.463 30.8187 77.8849C31.5203 77.3538 32.3411 77.002 33.2096 76.8601V76.8601Z" fill="#1400FF" fill-opacity="0.56"/>
<path id="Ellipse 3" d="M54.9831 73.5882C55.8345 73.4556 56.7061 73.5619 57.5007 73.8954C58.3045 74.2436 59.013 74.7795 59.5667 75.4582C60.1912 76.2206 60.666 77.094 60.9662 78.0327C61.314 79.109 61.4875 80.2341 61.4803 81.3652C61.4801 82.5432 61.3069 83.7147 60.9662 84.8424C60.6512 85.8965 60.1794 86.8973 59.5667 87.811C59.0136 88.6455 58.3136 89.3726 57.5007 89.957C56.7558 90.4938 55.892 90.8422 54.9831 90.9725C54.1319 91.0892 53.265 90.9678 52.4786 90.6218C51.6843 90.2621 50.9864 89.7193 50.4422 89.038C49.8324 88.2759 49.3694 87.4072 49.0769 86.476C48.7386 85.4129 48.5696 84.3033 48.5761 83.1877C48.576 82.024 48.7446 80.8663 49.0769 79.751C49.3838 78.7066 49.844 77.7135 50.4422 76.8041C50.987 75.9688 51.6769 75.2378 52.4794 74.6457C53.2175 74.0983 54.076 73.7357 54.9831 73.5882Z" fill="#DBFF00"/>
<path id="Path 2" d="M566.893 4.89562L530.391 10.1728C530.05 10.2245 529.702 10.2116 529.366 10.1347C529.063 10.0647 528.778 9.9323 528.529 9.74591C528.292 9.56868 528.1 9.33934 527.966 9.07567C527.828 8.80025 527.758 8.49635 527.759 8.18849C527.761 7.8606 527.832 7.53676 527.966 7.23757C528.104 6.92864 528.294 6.64606 528.529 6.40248C528.772 6.14871 529.055 5.93579 529.366 5.7719C529.686 5.60218 530.033 5.48806 530.391 5.43443L566.892 0.0352042C567.251 -0.0205463 567.617 -0.0100079 567.972 0.0663016C568.29 0.133982 568.591 0.266305 568.855 0.455065C569.11 0.637161 569.317 0.878114 569.459 1.1574C569.6 1.43668 569.672 1.74604 569.669 2.05915C569.666 2.39754 569.592 2.73153 569.45 3.03884C569.304 3.35889 569.103 3.65076 568.855 3.90113C568.326 4.43751 567.637 4.78736 566.892 4.89794L566.893 4.89562Z" fill="#F10000"/>
<path id="Path 3" d="M566.893 14.0076L530.391 19.0616C530.049 19.1113 529.702 19.0962 529.366 19.0173C529.063 18.9469 528.778 18.8145 528.529 18.6285C528.292 18.4499 528.1 18.2196 527.966 17.9552C527.827 17.6761 527.756 17.3681 527.759 17.0563C527.761 16.7289 527.832 16.4056 527.966 16.1069C528.104 15.7992 528.294 15.5178 528.529 15.2758C528.772 15.0246 529.055 14.8146 529.366 14.6538C529.686 14.4859 530.033 14.3739 530.391 14.3225L566.892 9.1472C567.251 9.09379 567.617 9.1067 567.972 9.1853C568.29 9.25578 568.591 9.39075 568.855 9.58186C569.105 9.76266 569.309 9.99871 569.452 10.2715C569.597 10.5551 569.671 10.8697 569.669 11.1883C569.666 11.5262 569.592 11.8597 569.45 12.1664C569.303 12.4844 569.101 12.7739 568.854 13.0217C568.324 13.5553 567.635 13.901 566.89 14.0061L566.893 14.0076Z" fill="#1400FF"/>
<path id="Path 4" d="M566.893 23.1196L530.391 27.9404C530.049 27.9879 529.701 27.9708 529.366 27.8898C529.062 27.8166 528.777 27.6816 528.529 27.4933C528.287 27.31 528.092 27.0728 527.958 26.8007C527.825 26.5286 527.756 26.2289 527.759 25.9258C527.761 25.5986 527.831 25.2755 527.965 24.9772C528.103 24.6702 528.294 24.3898 528.529 24.1491C528.772 23.8976 529.055 23.6875 529.366 23.5271C529.686 23.3611 530.033 23.2511 530.391 23.2021L566.892 18.2601C567.252 18.209 567.618 18.2243 567.972 18.3052C568.291 18.3778 568.591 18.5145 568.855 18.7072C569.105 18.8896 569.309 19.1269 569.452 19.4007C569.597 19.6847 569.671 19.9994 569.669 20.3182C569.666 20.6556 569.592 20.9887 569.45 21.2948C569.304 21.613 569.102 21.9026 568.854 22.1501C568.324 22.6805 567.634 23.022 566.89 23.1221L566.893 23.1196Z" fill="#EBFF00"/>
<path id="Rectangle 1" d="M393.352 107.261L569.67 92.3278V197.428L393.352 199.729V107.261Z" fill="#6C63FF"/>
<path id="Path 5" d="M530.749 244.938L426.037 242.857C424.827 242.836 423.673 242.349 422.813 241.499C422.4 241.092 422.069 240.609 421.839 240.077C421.603 239.532 421.481 238.945 421.482 238.351C421.481 237.762 421.603 237.18 421.839 236.64C422.068 236.116 422.399 235.642 422.813 235.247C423.231 234.847 423.722 234.532 424.26 234.318C424.825 234.095 425.429 233.985 426.037 233.994L530.748 235.374C531.458 235.382 532.161 235.518 532.822 235.777C533.448 236.021 534.024 236.377 534.521 236.828C535.001 237.26 535.391 237.783 535.669 238.366C535.946 238.953 536.09 239.593 536.09 240.241C536.091 240.885 535.947 241.521 535.669 242.102C535.393 242.676 535.002 243.187 534.521 243.605C534.022 244.04 533.446 244.378 532.822 244.6C532.157 244.837 531.454 244.951 530.748 244.935L530.749 244.938Z" fill="#E4E4E4"/>
<path id="Path 6" d="M512.76 228.415L441.87 227.82C441.246 227.816 440.628 227.691 440.051 227.453C439.5 227.225 438.997 226.896 438.568 226.482C438.146 226.075 437.807 225.59 437.571 225.053C437.33 224.505 437.205 223.912 437.205 223.313C437.205 222.714 437.33 222.121 437.571 221.573C437.807 221.039 438.146 220.558 438.568 220.155C438.997 219.745 439.5 219.421 440.05 219.199C440.629 218.966 441.247 218.848 441.87 218.85L512.76 218.971C513.451 218.971 514.136 219.098 514.781 219.346C515.391 219.58 515.953 219.925 516.437 220.364C516.907 220.788 517.288 221.302 517.557 221.875C517.828 222.452 517.968 223.082 517.968 223.719C517.968 224.356 517.828 224.986 517.557 225.563C517.288 226.132 516.908 226.642 516.438 227.061C515.953 227.495 515.392 227.835 514.782 228.062C514.136 228.304 513.45 228.424 512.76 228.417L512.76 228.415Z" fill="#E4E4E4"/>
<path id="Rectangle 2" d="M393.352 275.408L569.67 283.447V388.548L393.352 367.875V275.408Z" fill="#6C63FF"/>
<path id="Path 7" d="M530.749 430.987L426.037 415.262C425.412 415.167 424.81 414.959 424.26 414.648C423.716 414.342 423.227 413.948 422.813 413.482C422.403 413.025 422.073 412.502 421.839 411.934C421.606 411.373 421.485 410.771 421.482 410.162C421.478 409.587 421.599 409.018 421.839 408.495C422.065 408.007 422.398 407.575 422.813 407.232C423.236 406.884 423.73 406.632 424.26 406.493C424.84 406.342 425.444 406.31 426.037 406.399L530.748 421.421C531.473 421.527 532.174 421.755 532.822 422.095C533.453 422.425 534.027 422.854 534.521 423.367C534.999 423.859 535.388 424.432 535.669 425.058C535.943 425.665 536.086 426.322 536.09 426.988C536.095 427.615 535.95 428.234 535.669 428.794C535.396 429.328 535.003 429.791 534.521 430.148C534.015 430.521 533.436 430.785 532.822 430.921C532.141 431.073 531.437 431.094 530.748 430.986L530.749 430.987Z" fill="#E4E4E4"/>
<path id="Path 8" d="M512.76 412.122L441.87 402.289C441.232 402.199 440.616 401.994 440.051 401.685C439.495 401.381 438.995 400.987 438.569 400.519C438.149 400.061 437.812 399.535 437.571 398.964C437.333 398.397 437.208 397.789 437.205 397.174C437.201 396.59 437.326 396.013 437.571 395.483C437.803 394.985 438.144 394.545 438.568 394.195C439.002 393.838 439.507 393.578 440.05 393.432C440.643 393.274 441.262 393.236 441.87 393.32L512.76 402.677C513.465 402.772 514.149 402.988 514.781 403.315C515.397 403.633 515.956 404.05 516.437 404.549C516.904 405.031 517.283 405.591 517.556 406.204C517.823 406.802 517.963 407.449 517.967 408.103C517.971 408.723 517.83 409.336 517.556 409.892C517.291 410.422 516.908 410.884 516.437 411.244C515.946 411.618 515.382 411.885 514.781 412.029C514.119 412.187 513.433 412.218 512.76 412.12V412.122Z" fill="#E4E4E4"/>
<path id="Path 9" d="M290.926 368.67L13.7089 333.177C12.9544 333.07 12.239 332.774 11.6289 332.317C10.9582 331.817 10.3848 331.199 9.93702 330.492C9.43599 329.71 9.05271 328.858 8.79948 327.965C8.52237 326.998 8.38182 325.998 8.38193 324.993V149.924C8.38076 148.924 8.52134 147.93 8.79948 146.969C9.05115 146.093 9.43472 145.259 9.93702 144.498C10.3837 143.812 10.9578 143.218 11.6282 142.749C12.2436 142.318 12.9603 142.055 13.7081 141.985L290.926 119.287C292.113 119.185 293.308 119.344 294.428 119.754C295.547 120.163 296.562 120.814 297.403 121.658C298.257 122.513 298.929 123.531 299.381 124.651C299.868 125.86 300.116 127.151 300.111 128.455V359.922C300.118 361.215 299.87 362.496 299.381 363.692C298.933 364.787 298.259 365.776 297.403 366.594C296.571 367.386 295.574 367.983 294.483 368.343C293.336 368.716 292.121 368.828 290.926 368.67Z" fill="white"/>
<path id="Path 10" d="M181.314 239.575C180.57 238.609 179.732 237.718 178.812 236.918C177.937 236.156 176.983 235.489 175.967 234.929C174.987 234.389 173.95 233.961 172.874 233.654C171.816 233.354 170.726 233.181 169.627 233.139C168.54 233.098 167.452 233.19 166.388 233.412C165.327 233.634 164.296 233.979 163.316 234.442C162.314 234.915 161.369 235.499 160.497 236.181C159.589 236.893 158.758 237.698 158.017 238.583L83.4255 327.726C82.564 328.782 81.4603 329.615 80.2081 330.153C79.0609 330.633 77.8095 330.809 76.5746 330.664C75.2846 330.503 74.0494 330.045 72.9661 329.326C71.7235 328.5 70.6521 327.441 69.8108 326.209L59.9298 312.004C58.7932 310.32 57.3358 308.877 55.6409 307.757C54.1924 306.803 52.536 306.21 50.8108 306.029C49.1729 305.872 47.5227 306.151 46.0274 306.837C44.3901 307.61 42.9618 308.764 41.8621 310.203L23.9857 332.869L273.883 364.419V359.987L181.314 239.575Z" fill="#6C63FF"/>
<path id="Path 11" d="M290.925 372.016L13.7089 335.746C12.6979 335.599 11.7402 335.2 10.9237 334.586C10.0265 333.914 9.25964 333.084 8.66108 332.136C7.99182 331.088 7.47994 329.948 7.14176 328.752C6.77167 327.459 6.58374 326.122 6.58347 324.778V150.056C6.58252 148.72 6.77049 147.391 7.14176 146.108C7.4774 144.933 7.98969 143.815 8.66108 142.793C9.2584 141.874 10.0262 141.078 10.9229 140.447C11.7465 139.868 12.7061 139.513 13.7081 139.416L290.924 115.934C292.517 115.793 294.122 116.003 295.625 116.549C297.128 117.096 298.493 117.965 299.623 119.097C300.772 120.243 301.678 121.608 302.286 123.112C302.942 124.736 303.275 126.471 303.269 128.222V360.3C303.278 362.037 302.944 363.758 302.286 365.365C301.682 366.835 300.774 368.162 299.623 369.258C298.504 370.319 297.163 371.118 295.697 371.596C294.157 372.091 292.526 372.235 290.924 372.017L290.925 372.016ZM13.7089 144.554C13.2155 144.599 12.7423 144.771 12.3357 145.054C11.8926 145.363 11.513 145.754 11.2176 146.207C10.8852 146.71 10.6314 147.26 10.465 147.84C10.2808 148.473 10.1876 149.13 10.1881 149.79V325.204C10.1883 325.868 10.2815 326.529 10.465 327.167C10.6325 327.757 10.8861 328.32 11.2176 328.836C11.5134 329.305 11.893 329.715 12.3373 330.045C12.7403 330.346 13.2126 330.54 13.7104 330.609L290.926 365.316C291.714 365.419 292.515 365.343 293.271 365.096C293.989 364.857 294.645 364.462 295.192 363.939C295.754 363.4 296.197 362.748 296.492 362.026C296.813 361.239 296.975 360.396 296.971 359.545V128.686C296.974 127.829 296.811 126.979 296.492 126.183C296.195 125.445 295.753 124.775 295.192 124.211C294.639 123.653 293.971 123.223 293.234 122.951C292.497 122.679 291.709 122.572 290.926 122.637L13.7089 144.554Z" fill="#CBCBCB"/>
<path id="vectors" d="M52.59 554.197L60.925 554.196L64.89 522.047L52.589 522.048L52.59 554.197Z" fill="#FFB6B6"/>
<path id="Vector_2" d="M50.4642 551.475L66.8787 551.475H66.8794C69.6536 551.475 72.3142 552.577 74.2759 554.539C76.2376 556.5 77.3398 559.161 77.34 561.935V562.275L50.4647 562.276L50.4642 551.475Z" fill="#2F2E41"/>
<path id="Vector_3" d="M129.414 565.197L137.749 565.196L141.714 533.047L129.413 533.048L129.414 565.197Z" fill="#FFB6B6"/>
<path id="Vector_4" d="M127.288 562.475L143.703 562.475H143.703C146.478 562.475 149.138 563.577 151.1 565.539C153.062 567.5 154.164 570.161 154.164 572.935V573.275L127.289 573.276L127.288 562.475Z" fill="#2F2E41"/>
<path id="Vector_5" d="M119.351 306.919L124.79 341.592L73.12 342.272L79.919 308.959L119.351 306.919Z" fill="#FFB6B6"/>
<path id="Vector_6" d="M123.29 333.126L139.746 376.945L141.786 558.536H127.849L94.5359 412.637L63.9423 543.728H50.3451L59.8631 394.961C59.8631 394.961 57.0563 362.894 71.4207 343.972L74.9171 333.87L123.29 333.126Z" fill="#2F2E41"/>
<path id="Vector_7" d="M52.7013 367.285C54.14 366.893 55.4752 366.19 56.6129 365.226C57.7505 364.262 58.663 363.061 59.2861 361.706C59.9091 360.351 60.2275 358.877 60.2189 357.385C60.2103 355.894 59.8749 354.423 59.2363 353.076L81.2171 281.413L65.0493 278.208L44.9457 348.453C42.7532 349.675 41.0854 351.66 40.2584 354.031C39.4314 356.401 39.5026 358.992 40.4586 361.314C41.4146 363.635 43.1889 365.525 45.4453 366.626C47.7017 367.726 50.2835 367.961 52.7013 367.285V367.285Z" fill="#FFB6B6"/>
<path id="Vector_8" d="M81.6916 326.069C81.3899 326.069 81.089 326.039 80.7931 325.98V325.98C79.7983 325.781 78.8959 325.262 78.2239 324.502C77.5518 323.742 77.1471 322.783 77.0714 321.771C76.5603 314.773 74.0279 302.593 69.5446 285.567C68.0311 279.781 68.3663 273.665 70.5032 268.079C72.6401 262.493 76.4716 257.715 81.4606 254.416C86.4495 251.117 92.3459 249.461 98.323 249.682C104.3 249.903 110.058 251.988 114.79 255.646C117.82 257.967 120.349 260.877 122.225 264.201C124.1 267.526 125.283 271.195 125.703 274.988C127.931 294.611 123.73 314.313 121.821 321.873C121.57 322.859 121.003 323.737 120.205 324.37C119.408 325.004 118.425 325.359 117.407 325.38L81.7906 326.068C81.7575 326.068 81.7246 326.069 81.6916 326.069Z" fill="#3F3D56"/>
<path id="Vector_9" d="M181.199 263.12C180.985 263.6 180.809 264.096 180.673 264.603L136.091 279.753L127.476 272.227L114.419 283.744L128.375 298.548C129.502 299.744 130.987 300.543 132.607 300.823C134.226 301.103 135.893 300.85 137.357 300.103L185.063 275.735C186.788 276.793 188.794 277.301 190.815 277.191C192.836 277.081 194.776 276.358 196.376 275.119C197.976 273.88 199.161 272.183 199.773 270.254C200.386 268.325 200.396 266.255 199.803 264.32C199.21 262.385 198.043 260.676 196.455 259.421C194.867 258.166 192.935 257.424 190.915 257.293C188.896 257.163 186.884 257.651 185.148 258.692C183.413 259.733 182.035 261.277 181.199 263.12V263.12Z" fill="#FFB6B6"/>
<path id="Vector_10" d="M134.536 280.581L118.284 294.776C117.822 295.18 117.278 295.479 116.689 295.654C116.101 295.828 115.481 295.874 114.873 295.788C114.266 295.702 113.683 295.485 113.167 295.154C112.65 294.822 112.211 294.383 111.879 293.867L100.254 275.765C98.2016 273.387 97.1756 270.293 97.401 267.16C97.6264 264.027 99.0849 261.111 101.457 259.052C103.828 256.992 106.92 255.957 110.054 256.174C113.187 256.39 116.107 257.84 118.173 260.206L134.497 274.111C134.965 274.51 135.341 275.004 135.6 275.561C135.859 276.117 135.995 276.723 135.998 277.337C136.002 277.951 135.873 278.559 135.621 279.118C135.369 279.678 134.999 280.177 134.536 280.581V280.581Z" fill="#3F3D56"/>
<path id="Vector_11" d="M78.6493 299.762L58.5651 291.871C57.9937 291.647 57.4773 291.302 57.0513 290.86C56.6252 290.418 56.2994 289.889 56.096 289.31C55.8927 288.73 55.8166 288.114 55.873 287.503C55.9293 286.891 56.1168 286.299 56.4225 285.767L67.1383 267.112C68.3038 264.196 70.5782 261.86 73.4631 260.617C76.3479 259.375 79.6077 259.327 82.5278 260.484C85.448 261.641 87.7902 263.909 89.041 266.79C90.2918 269.671 90.3492 272.931 89.2005 275.854L84.3741 296.748C84.2357 297.346 83.9701 297.907 83.5952 298.394C83.2203 298.88 82.7451 299.28 82.2018 299.566C81.6585 299.852 81.06 300.017 80.4469 300.051C79.8339 300.085 79.2208 299.986 78.6493 299.762V299.762Z" fill="#3F3D56"/>
<path id="Vector_12" d="M93.5373 245.265C105.603 245.265 115.384 235.484 115.384 223.418C115.384 211.353 105.603 201.572 93.5373 201.572C81.4718 201.572 71.6907 211.353 71.6907 223.418C71.6907 235.484 81.4718 245.265 93.5373 245.265Z" fill="#FFB6B6"/>
<path id="Vector_13" d="M122.785 216.054H88.0948V200.932C95.7088 197.908 103.16 195.335 107.663 200.932C111.674 200.933 115.52 202.526 118.356 205.361C121.192 208.197 122.785 212.043 122.785 216.054V216.054Z" fill="#2F2E41"/>
<path id="Vector_14" d="M86.0948 246.054C99.9019 246.054 111.095 234.861 111.095 221.054C111.095 207.247 99.9019 196.054 86.0948 196.054C72.2877 196.054 61.0948 207.247 61.0948 221.054C61.0948 234.861 72.2877 246.054 86.0948 246.054Z" fill="#2F2E41"/>
<path id="Vector_15" d="M68.0948 218.054C76.9313 218.054 84.0948 210.89 84.0948 202.054C84.0948 193.217 76.9313 186.054 68.0948 186.054C59.2582 186.054 52.0948 193.217 52.0948 202.054C52.0948 210.89 59.2582 218.054 68.0948 218.054Z" fill="#2F2E41"/>
</g>
<defs>
<clipPath id="clip0_0_1">
<rect width="601.985" height="604.99" fill="white"/>
</clipPath>
</defs>
</svg>
